<svg width="223" height="279" viewBox="0 0 223 279" fill="none" xmlns="http://www.w3.org/2000/svg">
<path fill-rule="evenodd" clip-rule="evenodd" d="M39.6044 137.688C38.912 135.867 37.9631 134.11 36.8476 132.571C31.9621 125.786 24.1402 122.965 16.0747 122.234L13.7025 122.028L12.8819 119.797C10.9585 114.603 14.0744 107.433 16.3184 102.688C19.8703 95.1721 24.1659 87.9643 28.1922 80.6795C36.9117 64.8787 48.824 42.3061 46.4133 23.7863C45.9132 19.9515 49.9652 17.0914 53.4017 18.8357C57.7358 21.0288 61.4287 24.543 64.1215 28.5573C66.7502 32.469 68.4556 36.8425 69.4558 41.3826C71.4946 39.664 74.8157 39.8179 76.5596 42.3061C80.3936 47.7825 82.2016 54.7979 82.7529 61.7108C85.138 59.4792 89.4336 60.1974 90.6389 63.6859C92.4085 68.816 92.7803 74.6644 92.37 80.3845C94.3832 78.5248 97.7684 78.6403 99.5507 81.0258C100.282 82.0133 100.871 83.0778 101.333 84.2065C110.886 80.1665 120.221 75.1774 129.133 69.9319C139.34 63.9296 149.303 57.3758 158.894 50.4501C168.704 43.3706 178.27 35.7908 187.271 27.7108C195.926 19.9515 204.582 11.32 211.506 1.95752C212.852 0.14915 215.173 -0.479292 217.251 0.380006C219.302 1.22648 220.482 3.27853 220.2 5.47167C218.494 18.4253 214.558 32.0714 208.493 43.999C209.544 43.4219 210.583 42.8062 211.596 42.1906C215.276 39.9205 219.892 43.2808 218.841 47.4747C216.327 57.5939 211.544 67.7515 205.313 76.4215C206.531 75.8572 207.736 75.2287 208.877 74.5362C212.596 72.2917 217.174 75.7417 216.058 79.9356C211.173 98.2887 201.902 107.921 188.117 118.078C190.964 118.194 193.823 118.181 196.439 117.899C200.363 117.463 203.146 121.733 201.158 125.145C195.862 134.264 188.233 140.086 179.372 144.614C183.014 145.114 184.835 149.475 182.463 152.437C177.282 158.914 169.73 163.249 161.767 165.596C162.703 167.353 162.549 169.662 160.972 171.278C157.574 174.753 152.291 176.729 147.11 177.819C160.69 185.668 176.654 192.414 192.182 191.183C200.325 190.529 207.698 187.745 214.404 183.128C217.969 180.666 222.777 183.872 221.892 188.105C220.751 193.53 218.276 198.762 214.866 203.123C211.339 207.625 206.941 211.1 201.979 213.653C205.338 214.461 208.788 214.961 212.16 215.063C216.468 215.192 218.482 220.501 215.327 223.438C211.98 226.568 207.993 228.889 203.71 230.505C205.787 230.954 207.903 231.223 210.019 231.326C214.622 231.531 216.353 237.508 212.57 240.137C204.415 245.819 192.375 246.986 181.898 245.819C183.617 247.358 185.437 248.781 187.297 250.064C191.092 252.68 189.387 258.657 184.783 258.888C177.423 259.26 170.602 257.618 164.203 253.988C156.714 249.743 150.957 243.446 145.174 237.2C142.032 233.814 136.749 227.799 131.979 226.581C132.621 227.684 132.839 229.043 132.377 230.467C130.492 236.251 126.568 240.689 121.042 242.933C121.093 248.179 120.708 253.873 119.785 258.926C118.875 263.992 117.169 269.828 113.656 273.714C110.335 277.395 105.783 279.447 100.82 278.344C96.8964 277.472 93.6138 274.765 91.6134 271.328C89.3567 267.442 88.8309 262.889 89.8952 258.541C90.1388 257.567 90.6517 256.733 91.3442 256.105C91.0749 255.63 90.8313 255.13 90.6005 254.63C90.3055 254.63 89.9978 254.617 89.7029 254.566C87.4461 254.245 84.8559 252.154 83.0222 250.41C79.4447 250.474 75.3542 249.961 72.0973 248.73C69.8276 247.871 67.5965 246.55 65.5192 245.1C63.6086 250.679 60.0952 256.015 54.0172 257.272C53.1581 257.451 52.2861 257.528 51.4142 257.503C45.4901 257.361 40.3097 252.911 37.4631 247.999C35.0267 243.805 33.8727 238.649 35.3345 233.93C35.6166 233.019 36.1295 232.262 36.7834 231.698C31.7056 229.71 28.4487 224.644 28.0768 219.206C27.8075 215.333 29.0129 211.575 31.5005 208.625C32.5519 203.662 34.9498 198.968 39.1685 195.954C39.8224 195.492 40.4892 195.082 41.1816 194.735L38.0914 194.479C36.8219 195.069 35.6038 195.787 34.4241 196.621C30.013 199.724 26.3073 204.38 24.0761 209.318C24.2813 210.241 24.4993 211.165 24.7429 212.075C25.7302 215.846 21.9988 219.219 18.3444 217.834C12.2279 215.525 5.57291 211.665 1.76456 206.214C1.1106 205.278 1.02084 204.957 1.09778 203.816C1.40552 199.199 1.71327 194.569 2.02101 189.951C-0.0690928 186.719 -0.543534 183.257 0.623335 179.422C1.36705 176.985 2.44416 174.535 3.39305 172.163C4.99589 168.148 6.59873 164.147 7.99641 160.056C9.20174 156.503 10.9328 151.206 10.9585 147.474C10.9841 144.344 13.9718 142.049 16.998 142.818C18.1007 143.1 19.1907 143.536 20.178 144.126C23.8197 140.022 28.4743 136.316 33.6932 134.802C36.168 134.084 38.6171 135.457 39.5275 137.624C39.5403 137.624 39.5532 137.624 39.566 137.624" fill="#7BBDEB"/>
<path fill-rule="evenodd" clip-rule="evenodd" d="M101.359 84.2448C110.912 80.2048 120.247 75.2158 129.158 69.9702C139.365 63.968 149.328 57.4142 158.92 50.4885C168.729 43.4089 178.295 35.8292 187.297 27.7492C195.952 19.9899 204.607 11.3584 211.532 1.9959C212.878 0.187526 215.199 -0.440916 217.276 0.418382C219.328 1.26485 220.507 3.31691 220.225 5.51004C218.52 18.4636 214.583 32.1098 208.518 44.0374C209.57 43.4602 210.608 42.8446 211.621 42.229C215.301 39.9589 219.918 43.3192 218.866 47.513C216.353 57.6322 211.57 67.7899 205.338 76.4598C206.556 75.8955 207.762 75.2671 208.903 74.5745C212.622 72.3301 217.199 75.7801 216.084 79.974C211.198 98.3271 201.927 107.959 188.143 118.117C190.99 118.232 193.849 118.219 196.465 117.937C200.389 117.501 203.171 121.772 201.184 125.183C195.888 134.302 188.258 140.125 179.398 144.652C183.039 145.152 184.86 149.513 182.488 152.476C177.308 158.952 169.755 163.287 161.792 165.634C162.728 167.392 162.574 169.7 160.997 171.316C157.599 174.792 152.316 176.767 147.136 177.857C160.715 185.706 176.679 192.452 192.208 191.221C200.35 190.567 207.723 187.784 214.43 183.167C217.994 180.704 222.803 183.911 221.918 188.143C220.777 193.568 218.302 198.801 214.891 203.161C211.365 207.663 206.967 211.139 202.004 213.691C205.364 214.499 208.813 214.999 212.186 215.102C216.494 215.23 218.507 220.54 215.353 223.477C212.006 226.606 208.018 228.928 203.735 230.544C205.813 230.992 207.928 231.262 210.044 231.364C214.647 231.57 216.379 237.546 212.596 240.175C204.441 245.857 192.4 247.024 181.924 245.857C183.642 247.396 185.463 248.82 187.322 250.102C191.118 252.719 189.412 258.695 184.809 258.926C177.449 259.298 170.627 257.656 164.229 254.027C156.74 249.782 150.983 243.484 145.2 237.238C142.058 233.852 136.775 227.837 132.005 226.619C132.646 227.722 132.864 229.081 132.402 230.505C130.518 236.289 126.594 240.727 121.067 242.971L118.605 241.278L104.449 220.86L73.918 230.364L88.3436 202.828L70.0712 124.427L99.8199 87.464L101.346 84.2192L101.359 84.2448Z" fill="#7BBDEB"/>
<path fill-rule="evenodd" clip-rule="evenodd" d="M20.5883 147.538C24.153 143.075 29.0128 138.791 34.424 137.214C36.091 136.726 37.7323 138.124 37.5015 139.856C37.4502 140.24 37.4117 140.625 37.3733 141.023C39.0915 140.317 40.861 139.791 42.7075 139.509C41.9894 136.547 40.5789 133.61 38.8222 131.173C33.5136 123.811 25.1019 120.63 16.3055 119.848L15.4592 119.771L15.1643 118.976C13.5614 114.628 16.6004 107.792 18.511 103.739C21.8577 96.6598 26.4996 88.7593 30.3079 81.8721C39.3608 65.4685 51.3116 42.6522 48.8111 23.504C48.5547 21.5802 50.5807 20.1438 52.3117 21.0287C56.274 23.0423 59.6592 26.2743 62.1211 29.9423C65.968 35.6752 67.6862 42.4855 68.135 49.3214C69.0326 47.7695 69.7763 46.1151 70.2892 44.4093C70.8791 42.4727 73.4308 42.0623 74.5977 43.7296C79.7396 51.0785 80.9449 61.5568 80.4448 70.2909C81.7656 68.4312 82.9581 66.4304 83.8557 64.3527C84.7276 62.3263 87.6512 62.4289 88.3693 64.5194C91.1133 72.4712 90.2414 82.4365 88.3949 90.5036C90.3696 88.2207 92.2161 85.6556 93.5112 82.9238C94.2934 81.2822 96.5502 81.0641 97.6401 82.5134C98.7429 83.9883 99.4481 85.7069 99.8328 87.5025C120.029 79.3327 143.02 64.9683 160.33 52.4636C177.936 39.7409 200.235 21.3365 213.468 3.45799C214.942 1.45723 218.148 2.75259 217.815 5.21506C215.814 20.4259 210.621 36.7526 202.517 49.7831C205.967 48.18 209.647 46.3203 212.891 44.3067C214.737 43.1652 217.045 44.8454 216.52 46.9487C213.404 59.4791 206.685 72.0992 198.068 81.6541C202.248 80.487 206.428 78.9095 210.16 76.665C212.019 75.5492 214.314 77.2678 213.75 79.3712C208.313 99.7635 197.221 108.934 181.27 120.066C185.899 120.489 192.118 120.861 196.734 120.348C198.709 120.13 200.094 122.259 199.094 123.978C192.58 135.174 182.321 141.112 170.961 145.896C173.448 146.435 176.282 146.922 178.834 147.038C180.808 147.127 181.847 149.436 180.603 150.975C174.551 158.542 164.959 162.98 155.586 164.621C156.458 165.045 157.356 165.391 158.151 165.596C159.946 166.071 160.561 168.315 159.266 169.636C154.791 174.202 146.251 175.908 140.122 176.472C155.227 185.937 174.012 195.107 192.4 193.645C200.966 192.965 208.736 190.041 215.802 185.18C217.597 183.949 219.995 185.539 219.546 187.668C218.482 192.734 216.161 197.634 212.981 201.699C208.3 207.689 201.992 211.665 194.939 214.089C200.35 216.102 206.351 217.385 212.109 217.551C214.263 217.616 215.276 220.27 213.699 221.745C208.698 226.427 202.068 229.184 195.337 230.351C199.901 232.403 204.941 233.583 209.942 233.814C212.25 233.917 213.109 236.905 211.224 238.226C201.722 244.857 186.181 244.869 175.154 242.292C178.205 246.075 182.052 249.435 185.963 252.141C187.861 253.45 187.015 256.438 184.706 256.553C177.795 256.9 171.448 255.373 165.434 251.962C150.688 243.6 142.161 226.042 131.954 224.157C131.466 224.067 130.966 224.015 130.466 223.99C129.723 224.118 128.71 224.605 128.094 224.977C126.927 225.683 125.901 226.619 125.017 227.671C125.606 227.44 126.171 227.183 126.645 226.914C128.556 225.849 130.813 227.696 130.133 229.787C128.286 235.456 124.299 239.585 118.644 241.317C118.81 246.703 118.4 253.373 117.464 258.567C116.643 263.12 115.092 268.66 111.925 272.162C102.692 282.384 89.1771 271.905 92.3059 259.183C92.6649 257.746 94.2036 256.977 95.5372 257.502C93.9472 256.207 92.8701 253.963 92.1776 251.949C91.5493 252.231 90.8441 252.347 90.1132 252.244C88.2923 251.988 85.5867 249.576 84.048 248.037C80.573 248.217 76.2646 247.781 73.0333 246.55C69.943 245.382 66.7886 243.176 64.2497 241.112C62.9418 246.793 59.9156 253.68 53.6068 254.989C44.5412 256.861 34.7702 244.241 37.7195 234.737C38.2709 232.968 40.5148 232.442 41.7843 233.776C42.3485 234.365 43.1435 234.943 43.977 235.392C43.6051 233.134 42.8357 230.98 41.5406 229.056C40.9123 229.8 39.9891 230.21 38.7966 229.889C33.9752 228.594 30.8978 224.015 30.5644 219.142C30.3336 215.679 31.4748 212.37 33.8214 209.843C34.6805 205.265 36.7706 200.802 40.6431 198.031C47.4135 193.196 56.5432 195.877 59.1719 204.123C63.1982 204.957 64.9806 208.035 65.9936 211.742C66.3655 213.101 66.6091 214.473 66.9425 215.833C69.8276 203.521 57.9153 193.786 46.1825 192.811L42.3613 192.491L45.8491 190.182C41.3227 190.4 37.0142 191.965 33.0905 194.735C28.1152 198.236 23.9863 203.546 21.6141 209.164C21.8577 210.382 22.1527 211.6 22.4604 212.793C22.9605 214.691 21.0884 216.372 19.2547 215.679C13.6256 213.55 7.31677 209.972 3.80334 204.944C3.46995 204.47 3.52124 204.675 3.55971 204.098C3.8931 199.198 4.21367 194.299 4.54706 189.4C4.48295 189.207 1.27726 185.873 2.99551 180.243C3.58535 178.319 4.91892 175.112 5.68828 173.189C8.18871 166.955 13.3819 154.233 13.4332 147.615C13.446 146.05 14.9335 144.896 16.4594 145.281C17.9853 145.678 19.4984 146.435 20.6139 147.564" fill="#042E64"/>
<path fill-rule="evenodd" clip-rule="evenodd" d="M17.3313 208.099C17.3313 208.099 11.6893 206.765 9.58636 202.392C9.58636 202.392 8.39385 198.083 9.81717 191.067C9.81717 191.067 11.6124 190.375 12.6125 189.041C12.6125 189.041 11.997 191.336 12.3304 193.94C14.2282 188.797 21.1909 186.117 25.8071 190.323C24.3838 191.093 23.0887 191.926 21.9475 192.811C22.8194 192.632 24.8069 192.311 26.5765 192.504C22.4989 194.581 21.6013 196.133 18.9854 199.596C18.9854 199.596 18.8444 197.095 19.524 195.03C16.2029 198.685 15.1899 203.097 17.3441 208.086" fill="#7BBDEB"/>
<path fill-rule="evenodd" clip-rule="evenodd" d="M17.3313 208.099C17.3313 208.099 11.6893 206.765 9.58636 202.392C9.58636 202.392 8.39385 198.083 9.81717 191.067C9.81717 191.067 10.5352 190.785 11.3174 190.246C10.2403 194.774 10.7917 200.468 10.7917 200.468C12.0355 204.354 17.3441 208.086 17.3441 208.086" fill="white"/>
<path fill-rule="evenodd" clip-rule="evenodd" d="M20.2293 188.246C22.1527 188.181 24.1274 188.797 25.7944 190.31C24.371 191.08 23.0759 191.914 21.9347 192.799C22.8067 192.619 24.7942 192.298 26.5637 192.491C22.4861 194.568 21.5885 196.12 18.9727 199.583C18.9727 199.583 18.8316 197.082 19.5112 195.017C16.1901 198.673 15.1771 203.084 17.3314 208.074C17.3314 208.074 13.5358 203.969 13.3948 200.545C13.3948 200.545 16.3825 193.953 19.7805 191.324C19.7805 191.324 17.0236 192.491 14.9335 194.671C14.9335 194.671 16.3825 190.913 20.2421 188.233" fill="#7BBDEB"/>
<path fill-rule="evenodd" clip-rule="evenodd" d="M8.79138 182.141C9.67615 178.396 18.0622 162.39 17.1005 155.131C17.1005 155.131 20.0497 155.72 20.6909 157.683C20.6909 157.683 26.5893 148.025 31.2953 144.627C31.2953 144.627 30.5516 148.91 30.667 153.425C30.667 153.425 45.5285 142.1 62.8392 144.203C62.8392 144.203 49.4523 149.885 41.5406 159.709C53.1324 160.607 65.2755 166.814 71.5202 176.446C71.5202 176.446 65.9167 174.138 59.9669 174.805C59.9669 174.805 73.9565 180.281 80.0217 192.029C80.0217 192.029 74.8926 188.771 70.1738 187.63C70.1738 187.63 76.3031 193.953 77.7264 205.534C77.7264 205.534 68.5966 194.184 59.6848 190.092C59.6848 190.092 64.8267 190.015 68.2504 190.682C59.5181 183.641 48.6957 182.987 39.5659 185.95C39.5659 185.95 44.7592 179.73 52.222 178.793C42.9768 176.857 37.463 180.884 31.1158 187.078C26.6406 185.116 22.8451 184.321 17.8058 185.822C19.6779 181.307 23.8068 181.422 23.0374 177.011C22.422 178.87 20.3703 179.717 20.3703 179.717C22.4861 176.562 19.524 174.753 19.524 174.753C20.2036 173.304 21.8193 172.586 21.8193 172.586C16.9338 171.213 13.664 179.409 13.1639 182.346C12.3176 187.373 7.73992 186.591 8.77856 182.128" fill="#ADBFCE"/>
<path fill-rule="evenodd" clip-rule="evenodd" d="M8.79143 182.141C9.6762 178.396 18.0623 162.39 17.1006 155.131C19.7549 156.67 20.1139 159.196 20.1139 159.196C20.3832 158.311 20.6909 157.683 20.6909 157.683C20.6909 157.683 26.5894 148.025 31.2953 144.627C27.9358 149.846 28.5384 155.797 28.5384 155.797C29.2822 154.643 30.667 153.425 30.667 153.425C30.667 153.425 45.5286 142.1 62.8393 144.203C46.1184 145.717 35.5012 160.055 35.5012 160.055C37.5785 159.632 41.5407 159.709 41.5407 159.709C49.6703 160.338 58.082 163.582 64.5319 168.79C50.8628 163.698 35.6679 169.841 35.6679 169.841C42.028 169.533 45.3747 172.086 45.3747 172.086C30.9876 173.253 24.2557 185.103 24.2557 185.103C22.2425 184.924 20.1652 185.116 17.8186 185.822C19.6908 181.307 23.8197 181.422 23.0503 177.011C22.8836 177.511 22.6143 177.947 22.3066 178.293C22.6785 176.061 21.2038 174.048 20.6268 173.355C21.2423 172.829 21.8322 172.573 21.8322 172.573C12.4203 167.43 12.9716 184.424 10.6892 185.783C9.3941 185.963 8.21441 184.629 8.80426 182.128" fill="white"/>
<path fill-rule="evenodd" clip-rule="evenodd" d="M78.1367 120.977C78.1367 120.977 75.4952 125.748 69.5455 130.839C68.3145 130.775 65.6345 130.608 64.1855 130.288C64.1855 130.288 66.5065 127.902 67.9426 123.824C70.0584 123.696 73.9693 123.131 78.1367 120.964" fill="#042E64"/>
<path fill-rule="evenodd" clip-rule="evenodd" d="M83.1632 104.611C82.9068 112.576 75.5978 118.386 68.712 120.964C68.8146 120.399 68.9044 119.81 68.9556 119.207C68.9556 119.207 65.2499 119.386 63.7881 119.425C63.7881 119.425 65.0575 117.36 66.0064 114.256C72.0075 112.486 80.7013 107.33 83.1632 104.611Z" fill="#042E64"/>
<path fill-rule="evenodd" clip-rule="evenodd" d="M69.6737 112.909C75.0977 110.601 81.1757 106.805 83.1632 104.611C80.2012 114.436 69.3403 117.18 69.3403 117.18C69.5711 115.949 69.6481 114.154 69.6737 112.909Z" fill="#A9C4E9"/>
<path fill-rule="evenodd" clip-rule="evenodd" d="M82.2016 82.2441C84.8046 94.1588 76.7263 105.291 66.763 111.101C67.0067 109.613 67.1221 107.997 66.9938 106.33C66.9938 106.33 63.006 108.215 60.403 108.818C60.403 108.818 61.775 104.894 61.7237 100.264C61.7237 100.264 75.1363 93.851 82.2016 82.2569" fill="#042E64"/>
<path fill-rule="evenodd" clip-rule="evenodd" d="M65.9937 97.814C70.5329 94.9668 77.6623 89.6571 82.1888 82.2441C81.4322 98.3655 66.981 103.893 66.981 103.893C66.7502 101.957 66.3142 99.4557 65.9937 97.814Z" fill="#A9C4E9"/>
<path fill-rule="evenodd" clip-rule="evenodd" d="M70.2251 59.9665C71.3919 61.9159 73.3153 67.5719 72.8409 74.908C72.764 75.8699 71.4817 89.0159 61.4415 97.1215C61.1594 95.4927 60.6465 93.851 59.7874 92.3505C59.7874 92.3505 56.9279 95.3772 54.0171 97.3908C54.0171 97.3908 54.1967 93.556 53.3247 88.9517C53.3247 88.9517 67.4425 73.4715 70.2251 59.9793" fill="#042E64"/>
<path fill-rule="evenodd" clip-rule="evenodd" d="M56.6073 85.04C60.9542 79.5892 68.3016 69.3033 70.225 59.9665C70.8277 78.435 58.8385 89.593 58.8385 89.593C58.1717 88.0411 57.1843 86.1558 56.5945 85.04" fill="#A9C4E9"/>
<path fill-rule="evenodd" clip-rule="evenodd" d="M21.3705 114.051C23.8068 102.072 52.4656 65.4685 54.4531 31.8661C63.6342 43.3063 59.9926 73.1637 52.6451 86.0532C51.8373 83.206 50.5679 80.3203 48.5803 78.0117C44.6053 86.2071 40.6559 93.043 36.9886 101.674C36.9886 101.674 46.1825 91.8246 48.6444 84.8733C48.6444 84.8733 50.7987 96.788 46.721 107.523C49.4907 106.446 53.671 103.329 57.7358 98.699C57.7358 98.699 58.518 107.677 51.1962 115.462C53.2735 115.257 58.9026 114 62.5828 111.64C62.5828 111.64 60.1464 119.04 55.5431 122.849C55.5431 122.849 60.5183 124.042 64.2497 123.195C64.2497 123.195 62.0699 128.441 56.8125 131.57C56.8125 131.57 60.0567 133.892 65.6346 133.866C61.5569 136.713 56.3894 139.381 50.0293 141.1C47.0929 127.441 37.1296 115.859 21.3448 114.051" fill="#7BBDEB"/>
<path fill-rule="evenodd" clip-rule="evenodd" d="M21.3705 114.051C23.8068 102.072 52.4656 65.4685 54.4531 31.8661C54.4531 31.8661 57.1716 51.7197 45.0284 75.5492C34.8215 95.5824 26.9356 107.767 29.1411 115.859C26.7304 114.987 24.1402 114.359 21.3705 114.051Z" fill="white"/>
<path fill-rule="evenodd" clip-rule="evenodd" d="M54.4531 31.879C63.6342 43.3192 59.9926 73.1766 52.6451 86.066C51.8373 83.2188 50.5678 80.3331 48.5803 78.0245C48.5803 78.0245 58.5308 56.9781 54.4403 31.879" fill="#042E64"/>
<path fill-rule="evenodd" clip-rule="evenodd" d="M64.2625 123.195C64.2625 123.195 62.0827 128.441 56.8253 131.57C53.1324 131.929 50.0421 131.891 50.0421 131.891C57.5306 130.788 64.2497 123.195 64.2497 123.195" fill="#042E64"/>
<path fill-rule="evenodd" clip-rule="evenodd" d="M62.5828 111.64C62.5828 111.64 60.1464 119.04 55.5431 122.849C52.7862 122.747 50.2986 122.452 50.2986 122.452C58.082 119.591 62.5828 111.64 62.5828 111.64Z" fill="#042E64"/>
<path fill-rule="evenodd" clip-rule="evenodd" d="M57.7358 98.699C57.7358 98.699 58.518 107.677 51.1962 115.462C49.1446 115.795 45.8748 116.18 45.8748 116.18C54.8378 111.473 57.7358 98.699 57.7358 98.699Z" fill="#042E64"/>
<path fill-rule="evenodd" clip-rule="evenodd" d="M48.6573 84.8861C48.6573 84.8861 50.8115 96.8008 46.7339 107.536L40.5533 110.178C49.0035 100.418 48.6701 84.8989 48.6701 84.8989" fill="#042E64"/>
<path fill-rule="evenodd" clip-rule="evenodd" d="M63.7496 151.18C70.3917 146.153 89.1129 130.301 92.4597 101.803C92.4597 101.803 168.498 68.0849 197.093 33.5847C191.926 65.5326 134.454 88.2592 107.616 101.687C114.079 101.379 133.518 95.0438 142.148 90.9653C134.069 105.214 114.592 110.819 100.692 114.012C100.692 114.012 117.605 116.449 129.799 114.641C129.799 114.641 123.555 124.516 96.3834 125.363C96.3834 125.363 109.976 131.096 119.528 131.147C110.822 136.457 96.5501 137.008 87.1895 133.366C87.1895 133.366 94.6267 141.792 110.796 143.896C104.346 148.23 91.2159 146.935 84.3301 143.896C84.3301 143.896 92.4469 152.181 104.449 153.066C97.5375 157.131 84.1377 155.99 76.7005 153.579C76.7005 153.579 78.3547 156.708 81.7912 158.824C81.7912 158.824 79.4959 160.363 75.9953 161.094C82.8683 162.928 93.7548 166.763 98.4992 173.496C96.6271 173.368 93.8702 173.855 91.5236 174.548C91.5236 174.548 108.347 182.859 115.271 192.85C115.592 190.413 114.707 186.771 113.797 184.577C117.413 184.962 133.223 187.13 138.532 195.659C138.532 195.659 138.647 190.49 133.787 185.193C146.161 187.822 148.405 202.725 168.909 204.149C168.909 204.149 161.843 201.135 159.292 196.454C172.974 202.854 190.4 203.187 204.825 199.288C192.131 212.973 158.997 211.37 143.481 202.866C143.481 202.866 157.612 217.846 177.667 220.604C177.667 220.604 170.589 216.692 167.755 213.704C167.755 213.704 174.128 214.461 179 214.332C179 214.332 189.117 220.95 202.338 221.797C184.527 228.838 160.1 221.168 143.071 214.358C143.071 214.358 152.175 223.323 164.267 227.299C164.267 227.299 162.715 225.388 161.856 223.682C161.856 223.682 167.883 225.554 176.192 226.581C176.192 226.581 180.424 232.685 186.809 235.007C186.809 235.007 169.986 233.557 161.895 229.838C153.804 226.119 143.507 219.514 143.507 219.514C143.507 219.514 150.226 229.223 157.33 235.058C157.33 235.058 156.419 232.301 156.343 230.826C156.343 230.826 158.702 232.249 161.446 233.07C161.446 233.07 163.6 243.895 173.217 249.666C155.573 242.035 142.058 215.384 131.223 214.794C131.223 214.794 132.043 212.87 131.389 209.433C131.389 209.433 127.273 217.718 120.349 220.335C120.349 220.335 127.043 210.626 125.632 201.43C125.632 201.43 121.375 211.498 112.809 214.909C112.809 214.909 115.425 215.897 118.964 214.743C118.964 214.743 117.092 221.604 112.95 225.041C112.95 225.041 116.925 225.606 121.465 223.451C121.465 223.451 118.003 229.441 113.438 230.941C113.438 230.941 116.528 233.352 121.465 233.301C121.465 233.301 118.541 236.366 112.155 235.404C112.155 235.404 112.014 231.095 108.36 229.133C104.705 227.17 100.076 228.851 100.076 228.851C100.076 228.851 101.795 214.217 90.9209 205.714C91.2928 209.202 90.1516 213.447 90.1516 213.447C90.1516 213.447 86.7151 203.315 79.2266 196.223C79.2266 196.223 85.0097 197.069 87.8563 199.288C87.8563 199.288 86.5227 186.745 75.4567 179.768C75.4567 179.768 79.5728 179.511 83.1888 180.73C76.6236 171.701 69.866 163.723 59.0308 159.478C57.2613 156.375 60.8516 153.399 63.7624 151.206" fill="#7BBDEB"/>
<path fill-rule="evenodd" clip-rule="evenodd" d="M75.9824 161.081C82.8554 162.915 93.7419 166.75 98.4863 173.484C96.6142 173.355 93.8573 173.843 91.5107 174.535C91.5107 174.535 108.334 182.846 115.258 192.837C115.579 190.4 114.694 186.758 113.784 184.565C117.4 184.949 133.21 187.117 138.519 195.646C138.519 195.646 138.634 190.477 133.774 185.18C133.774 185.18 143.507 190.734 147.495 200.173C161.933 210.318 191.81 206.573 204.825 199.288C192.131 212.973 158.997 211.37 143.481 202.866C143.481 202.866 157.612 217.846 177.667 220.604C177.667 220.604 170.589 216.692 167.755 213.704C167.755 213.704 174.128 214.461 179 214.332C179 214.332 179.693 214.781 180.962 215.474C179.321 216 177.064 216.692 175.743 216.949C175.743 216.949 187.22 225.016 202.338 221.797C184.527 228.838 160.1 221.168 143.071 214.358C143.071 214.358 152.175 223.323 164.267 227.299C164.267 227.299 162.715 225.388 161.856 223.682C161.856 223.682 163.754 224.272 166.908 224.977C167.126 226.029 167.498 227.671 167.96 228.851C167.96 228.851 178.205 233.981 186.809 235.007C186.809 235.007 169.986 233.557 161.895 229.838C153.804 226.119 143.507 219.514 143.507 219.514C143.507 219.514 150.226 229.223 157.33 235.058C157.33 235.058 156.419 232.301 156.342 230.826C156.342 230.826 158.702 232.249 161.446 233.07C161.446 233.07 163.6 243.895 173.217 249.666C155.573 242.035 142.058 215.384 131.223 214.794C131.223 214.794 132.043 212.87 131.389 209.433C131.389 209.433 127.273 217.718 120.349 220.335C120.349 220.335 127.043 210.626 125.632 201.43C125.632 201.43 121.375 211.498 112.809 214.909C112.809 214.909 115.425 215.897 118.964 214.743C118.964 214.743 117.092 221.604 112.95 225.041C112.95 225.041 116.925 225.606 121.465 223.451C121.465 223.451 118.003 229.441 113.438 230.941C113.438 230.941 116.528 233.352 121.465 233.301C121.465 233.301 118.541 236.366 112.155 235.404C112.155 235.404 112.014 231.095 108.36 229.133C108.052 228.966 107.744 228.838 107.437 228.722C107.603 220.514 104.539 212.396 99.9225 208.612C102.051 211.767 102.82 220.758 102.82 220.758C99.6147 209.035 90.9209 205.714 90.9209 205.714C91.2927 209.202 90.1515 213.447 90.1515 213.447C90.1515 213.447 86.715 203.315 79.2266 196.223C79.2266 196.223 85.0096 197.069 87.8563 199.288C87.8563 199.288 86.5227 186.745 75.4567 179.768C75.4567 179.768 79.5728 179.511 83.1888 180.73C83.1888 180.73 80.4575 168.11 71.0457 160.402C72.5844 160.594 74.2385 160.825 75.9952 161.107" fill="#042E64"/>
<path fill-rule="evenodd" clip-rule="evenodd" d="M69.584 146.281C77.8675 138.573 89.8439 124.042 92.4598 101.803C92.4598 101.803 93.5369 101.328 95.4475 100.443C93.9985 118.514 85.3303 136.136 69.5712 146.281H69.584Z" fill="white"/>
<path fill-rule="evenodd" clip-rule="evenodd" d="M142.135 90.9653C134.057 105.214 114.579 110.819 100.679 114.012L102.641 110.909C102.641 110.909 130.325 105.702 142.122 90.9653" fill="white"/>
<path fill-rule="evenodd" clip-rule="evenodd" d="M107.616 101.687C107.616 101.687 118.49 101.739 130.659 99.2633C137.134 95.4414 142.135 90.9653 142.135 90.9653C133.505 95.0566 114.079 101.379 107.603 101.687H107.616Z" fill="#042E64"/>
<path fill-rule="evenodd" clip-rule="evenodd" d="M91.998 105.06C92.1776 103.996 92.3314 102.906 92.4597 101.803C92.4597 101.803 168.498 68.0849 197.093 33.5847C173.704 67.1615 124.106 90.4779 91.998 105.06Z" fill="white"/>
<path fill-rule="evenodd" clip-rule="evenodd" d="M84.3173 143.896C84.3173 143.896 92.434 152.181 104.436 153.066C104.436 153.066 100.5 153.681 95.5115 153.681C87.6383 150.321 84.3301 143.896 84.3301 143.896" fill="#042E64"/>
<path fill-rule="evenodd" clip-rule="evenodd" d="M87.1768 133.366C87.1768 133.366 94.6139 141.792 110.783 143.896C110.783 143.896 106.424 144.922 100.782 144.652C91.6134 140.522 87.1768 133.366 87.1768 133.366Z" fill="#042E64"/>
<path fill-rule="evenodd" clip-rule="evenodd" d="M96.3706 125.363C96.3706 125.363 109.963 131.096 119.516 131.147C119.516 131.147 115.553 132.045 109.988 132.455C101.102 129.89 96.3706 125.363 96.3706 125.363Z" fill="#042E64"/>
<path fill-rule="evenodd" clip-rule="evenodd" d="M100.692 114.012C100.692 114.012 117.605 116.449 129.799 114.641C129.799 114.641 124.927 117.309 117.797 118.719C108.193 117.219 100.692 114.012 100.692 114.012Z" fill="#042E64"/>
<path fill-rule="evenodd" clip-rule="evenodd" d="M152.355 84.6039C152.355 84.6039 188.951 65.8148 202.915 55.5417C192.105 84.3987 168.345 92.8378 141.789 101.533C146.354 96.0698 149.611 91.2218 152.355 84.5911" fill="#042E64"/>
<path fill-rule="evenodd" clip-rule="evenodd" d="M152.355 84.6039C152.355 84.6039 188.951 65.8148 202.915 55.5417C192.079 77.8065 152.239 92.6454 152.239 92.6454C152.983 87.6564 152.355 84.6039 152.355 84.6039Z" fill="#7BBDEB"/>
<path fill-rule="evenodd" clip-rule="evenodd" d="M152.355 84.6039C152.355 84.6039 188.951 65.8148 202.915 55.5417C188.22 69.5342 156.278 86.7843 156.278 86.7843L152.368 84.6039H152.355Z" fill="white"/>
<path fill-rule="evenodd" clip-rule="evenodd" d="M128.915 122.003C131.569 119.232 134.493 115.872 136.685 110.396C135.506 110.755 134.005 110.96 132.556 111.063C134.672 109.306 136.814 107.138 138.763 104.996C147.097 103.573 186.297 96.6341 199.555 89.3365C182.168 116.988 159.933 122.028 128.915 122.003Z" fill="#042E64"/>
<path fill-rule="evenodd" clip-rule="evenodd" d="M147.79 103.38C162.677 100.597 189.13 95.0694 199.555 89.3365C182.732 104.983 155.381 111.999 143.404 113.923C145.546 110.229 147.02 105.92 147.79 103.367" fill="#7BBDEB"/>
<path fill-rule="evenodd" clip-rule="evenodd" d="M125.235 125.837C125.235 125.837 160.895 131.711 186.258 126.492C165.844 144.421 143.122 145.858 117.823 138.688C117.823 138.688 124.286 134.969 127.697 129.89C127.697 129.89 122.632 128.71 120.657 128.172C122.221 127.594 123.786 126.863 125.222 125.825" fill="#042E64"/>
<path fill-rule="evenodd" clip-rule="evenodd" d="M138.006 127.428C150.688 128.685 170.473 129.736 186.258 126.479C164.075 136.482 133.775 134.52 133.775 134.52C135.416 132.25 136.98 129.39 138.006 127.428Z" fill="#7BBDEB"/>
<path fill-rule="evenodd" clip-rule="evenodd" d="M115.759 140.112C115.759 140.112 141.75 152.771 173.012 150.898C155.932 163.852 127.966 157.516 109.604 150.334C111.219 149.667 114.707 147.666 117.092 144.601C117.092 144.601 113.604 142.626 112.117 141.395C113.566 141.023 114.656 140.651 115.759 140.112Z" fill="#042E64"/>
<path fill-rule="evenodd" clip-rule="evenodd" d="M129.569 145.306C140.122 148.551 155.766 151.937 173.012 150.911C153.868 156.618 126.594 149.41 126.594 149.41C127.248 148.577 128.671 146.576 129.569 145.306Z" fill="#7BBDEB"/>
<path fill-rule="evenodd" clip-rule="evenodd" d="M110.63 153.476C110.63 153.476 131.761 165.275 148.444 167.212C133.133 171.932 115.13 170.777 96.9734 161.928C96.9734 161.928 105.821 159.465 110.617 153.476" fill="#042E64"/>
<path fill-rule="evenodd" clip-rule="evenodd" d="M90.8824 245.382C86.5355 243.638 85.8431 237.957 89.8566 238.2C89.8566 238.2 89.0231 239.868 89.5489 242.176C89.5489 242.176 89.8951 239.547 90.6645 238.662C91.6518 239.431 90.2798 242.445 90.8824 245.382Z" fill="white"/>
<path fill-rule="evenodd" clip-rule="evenodd" d="M99.0891 253.77C97.8838 251.872 95.9347 247.114 98.1787 245.434C97.7427 247.37 98.4736 249.448 98.4736 249.448C98.2941 247.242 98.9096 245.793 99.3199 245.1C99.7687 245.28 100.641 245.754 101.025 246.857C99.9867 248.999 99.4994 251.539 99.1019 253.77" fill="white"/>
<path fill-rule="evenodd" clip-rule="evenodd" d="M108.527 257.361C108.527 257.361 106.219 254.463 106.603 250.487C106.937 252.013 107.603 253.219 107.603 253.219C107.27 251.667 107.334 250.153 107.411 249.358C110.45 250.269 109.014 254.783 108.527 257.361Z" fill="white"/>
<path fill-rule="evenodd" clip-rule="evenodd" d="M99.2429 269.853C98.7428 269.558 95.255 267.339 95.5756 262.107C95.5756 262.107 97.4733 264.159 99.666 265.364C102.308 266.826 102.295 268.802 101.064 269.584C100.294 269.084 98.3068 267.634 97.0246 265.377C97.0246 265.377 97.3836 267.917 99.2557 269.84" fill="white"/>
<path fill-rule="evenodd" clip-rule="evenodd" d="M103.539 271.046C103.539 271.046 106.475 268.365 102.974 265.185C102.974 265.185 104.372 264.941 105.077 265.749C106.077 260.119 101.41 256.912 102.577 251.859C102.577 251.859 101.731 251.936 101.243 252.667C100.538 250.269 102.333 247.653 105.064 248.05C105.064 248.05 102.936 254.822 108.462 259.644C108.462 259.644 110.655 257.49 111.142 254.386C112.45 259.683 111.283 272.29 103.551 271.033" fill="#7BBDEB"/>
<path fill-rule="evenodd" clip-rule="evenodd" d="M110.181 257.195C110.591 256.399 110.963 255.45 111.13 254.386C112.296 259.131 111.489 269.751 105.731 271.008C105 271.161 104.282 271.161 103.539 271.046L104.116 270.328C104.744 269.327 105.385 267.378 102.974 265.185C102.974 265.185 104.372 264.941 105.077 265.749C105.565 266.172 106.449 267.57 106.077 269.084C110.001 266.224 110.309 260.221 110.194 257.195" fill="#7BBDEB"/>
<path fill-rule="evenodd" clip-rule="evenodd" d="M98.2941 242.009C98.2941 242.009 99.0634 238.508 100.577 237.7C104.449 237.328 104.231 242.022 103.269 244.446C102.192 242.676 100.551 241.689 98.3069 242.009" fill="#7BBDEB"/>
<path fill-rule="evenodd" clip-rule="evenodd" d="M100.987 237.687C104.423 237.687 104.192 242.125 103.256 244.459C102.82 243.741 102.282 243.151 101.654 242.728C102.769 240.214 101.884 238.598 100.987 237.687Z" fill="#7BBDEB"/>
<path fill-rule="evenodd" clip-rule="evenodd" d="M106.27 246.793C106.27 246.793 106.975 243.574 108.27 242.202C110.168 240.175 113.002 242.599 112.809 245.011C112.732 245.985 112.143 248.858 112.143 248.858C110.412 246.524 109.116 245.729 106.27 246.793Z" fill="#7BBDEB"/>
<path fill-rule="evenodd" clip-rule="evenodd" d="M109.155 241.573C110.937 240.881 112.963 242.946 112.809 244.998C112.732 245.972 112.143 248.845 112.143 248.845C111.13 247.473 110.258 246.639 109.142 246.396C110.335 244.138 109.758 242.484 109.155 241.573Z" fill="#7BBDEB"/>
<path fill-rule="evenodd" clip-rule="evenodd" d="M97.64 234.327C101.051 229.223 106.988 231.326 108.398 236.854L106.988 237.751C105.026 233.096 101.679 231.929 97.6272 234.327" fill="#7BBDEB"/>
<path fill-rule="evenodd" clip-rule="evenodd" d="M86.5998 236.661C85.3944 232.634 89.5746 230.043 92.4726 234.648C93.0496 235.571 94.9474 237.213 96.4476 237.623C96.4476 237.623 94.9987 240.778 95.7424 244.305C95.7424 244.305 95.0756 242.215 92.9214 240.983C94.537 235.802 88.5873 233.404 86.6126 236.661" fill="#7BBDEB"/>
<path fill-rule="evenodd" clip-rule="evenodd" d="M91.0236 232.98C91.5237 233.365 92.0109 233.917 92.4726 234.648C93.0496 235.571 94.9473 237.213 96.4476 237.623C96.4476 237.623 94.9986 240.778 95.7424 244.305C95.7424 244.305 95.0756 242.215 92.9214 240.983C93.7548 238.303 92.5623 236.366 90.9467 235.571C91.2544 234.596 91.2031 233.699 91.0364 232.968" fill="#7BBDEB"/>
<path fill-rule="evenodd" clip-rule="evenodd" d="M72.6742 206.868C72.6742 206.868 80.6243 209.189 85.0481 215.063C85.0481 215.063 82.8811 214.974 80.6371 215.281C80.6371 215.281 90.3439 220.45 92.1263 229.697C86.5227 227.607 81.6629 230.133 82.3041 236.931C82.3041 236.931 77.7648 236.341 74.6489 233.865C74.6489 233.865 75.6747 239.124 78.9958 241.92C78.9958 241.92 71.9048 241.035 68.8915 236.097C68.8915 236.097 71.1611 231.39 69.0069 226.619C74.5078 221.784 74.3155 213.794 72.687 206.855" fill="#042E64"/>
<path fill-rule="evenodd" clip-rule="evenodd" d="M38.5273 223.413C38.5273 223.413 36.1679 221.514 36.014 219.052C35.8602 216.602 37.2578 214.897 37.2578 214.897C37.2578 214.897 37.2835 214.909 37.3219 214.935C36.5782 217.526 37.4758 220.45 37.4758 220.45C37.2707 218.321 37.8605 216.628 38.2708 215.743C38.912 216.346 39.6429 217.18 39.7711 217.923C40.0019 219.283 38.7325 221.168 38.5273 223.4" fill="white"/>
<path fill-rule="evenodd" clip-rule="evenodd" d="M42.4767 216.577C39.0017 213.46 40.0532 209.318 42.5023 205.932C42.5023 205.932 42.9126 206.15 43.464 206.509C41.8099 208.856 42.1305 211.819 42.1305 211.819C42.669 209.69 43.6948 208.138 44.4386 207.227C45.3233 207.945 46.2081 208.92 46.362 209.946C46.6825 212.114 43.246 212.601 42.4638 216.564" fill="white"/>
<path fill-rule="evenodd" clip-rule="evenodd" d="M47.4519 246.601C43.8744 246.998 41.8997 242.599 42.1561 239.598C42.1561 239.598 43.323 240.765 44.9259 241.484C46.4133 242.15 49.5677 243.33 48.3111 245.908C47.5289 245.665 45.2849 244.844 43.9129 243.125C43.9129 243.125 44.9771 245.677 47.4519 246.601Z" fill="white"/>
<path fill-rule="evenodd" clip-rule="evenodd" d="M50.0421 224.323C48.0802 220.553 49.324 215.487 53.5555 213.999C53.5555 213.999 53.8889 214.614 54.1967 215.435C53.2991 215.961 51.4782 217.282 50.5807 219.668C50.5807 219.668 52.2861 217.564 54.5429 216.564C54.6711 217.115 54.7224 217.68 54.6455 218.18C54.3634 219.873 51.4782 221.04 50.0421 224.323Z" fill="white"/>
<path fill-rule="evenodd" clip-rule="evenodd" d="M50.0165 249.32C52.5939 246.819 52.1322 241.509 48.2598 240.368C48.2598 240.368 49.6446 239.252 50.6833 239.419C50.2729 232.878 47.3622 224.067 41.8099 220.181C41.8099 220.181 43.0666 219.924 44.4001 220.206C43.3615 216.513 46.0286 214.679 48.0161 212.524C51.2731 209.023 50.2601 204.957 46.1184 202.623C46.1184 202.623 51.568 202.405 53.671 206.74C51.2603 209.241 50.0165 211.742 49.8498 215.243C49.8498 215.243 48.9266 214.858 48.6445 213.948C45.3747 218.808 46.2851 223.72 50.2601 227.773C51.1192 224.49 54.607 222.566 56.7228 220.142C59.5053 216.949 58.5564 213.114 54.7609 211.19C60.7235 210.126 61.2364 214.999 61.9673 219.257C62.6084 223.028 63.4675 226.914 66.0449 229.004C66.0449 229.004 65.5961 232.711 64.2369 233.288C62.8905 233.865 60.1849 230.762 59.3771 226.67C57.4408 231.967 61.8647 250.743 50.0165 249.333" fill="#7BBDEB"/>
<path fill-rule="evenodd" clip-rule="evenodd" d="M53.1068 230.774C53.017 231.711 52.9914 232.942 53.2478 234.122C53.7607 236.482 56.1586 234.109 55.7739 231.621C55.1199 227.414 53.453 227.158 53.1068 230.762M50.6705 239.393C50.2601 232.852 47.3494 224.041 41.7971 220.155C41.7971 220.155 43.0537 219.899 44.3873 220.181C43.3487 216.487 46.0158 214.653 48.0033 212.498C49.4523 210.934 50.055 209.253 49.9139 207.676C50.4781 208.035 51.068 208.548 51.6193 209.266C50.5294 210.998 49.9524 212.883 49.837 215.204C49.837 215.204 48.9137 214.82 48.6316 213.909C45.3618 218.77 46.2723 223.682 50.2473 227.735C51.1064 224.451 54.5942 222.528 56.71 220.104C57.3767 219.347 57.8255 218.552 58.082 217.744C58.082 217.744 58.8514 216.346 60.0567 216.32C60.544 216.32 61.1082 216.654 61.5826 217.064C61.7236 217.782 61.8391 218.501 61.9545 219.206C62.5956 222.977 63.4547 226.863 66.0321 228.953C66.0321 228.953 65.5833 232.66 64.2241 233.237C62.8777 233.814 60.1721 230.71 59.3643 226.619C56.4407 230.736 58.7488 237.726 55.3636 243.395C54.8378 241.676 53.5556 239.983 50.6705 239.38V239.393Z" fill="#7BBDEB"/>
<path fill-rule="evenodd" clip-rule="evenodd" d="M17.9469 175.831C17.9469 175.831 20.4601 177.562 18.729 180.627C18.729 180.627 19.1907 177.87 17.1775 176.754L17.9469 175.831Z" fill="white"/>
<path fill-rule="evenodd" clip-rule="evenodd" d="M16.203 178.857C16.203 178.857 15.2541 181.384 15.1515 182.359C15.1515 182.359 16.9723 181.41 17.3314 180.409C17.6776 179.409 17.2929 178.524 16.2158 178.857" fill="#7BBDEB"/>
</svg>
