<svg id="Calque_2"
    xmlns="http://www.w3.org/2000/svg" viewBox="0 0 196.48 247.34">
    <defs>
        <linearGradient id="Dégradé_sans_nom_11" x1="123.98" y1="189.09" x2="6.63" y2="43.36" gradientUnits="userSpaceOnUse">
            <stop offset=".4" stop-color="#7bbdeb"/>
            <stop offset="1" stop-color="#fff"/>
        </linearGradient>
        <linearGradient id="Dégradé_sans_nom_32" x1="91.8" y1="238.19" x2="91.8" y2="217.31" gradientUnits="userSpaceOnUse">
            <stop offset="0" stop-color="#9e9e9e"/>
            <stop offset=".1" stop-color="#b3b3b3"/>
            <stop offset=".29" stop-color="#d4d4d4"/>
            <stop offset=".47" stop-color="#ebebeb"/>
            <stop offset=".64" stop-color="#fafafa"/>
            <stop offset=".78" stop-color="#fff"/>
        </linearGradient>
        <style>.cls-3,.cls-4{fill-rule:evenodd}.cls-7{fill:#14243d}.cls-3{fill:#fff}.cls-4,.cls-8{fill:#7bbdeb}</style>
    </defs>
    <g id="Layer_1">
        <path d="M78.11 54.02c43.14 0 78.11 34.97 78.11 78.11s-34.97 78.11-78.11 78.11c-15.26 0-29.49-4.38-41.52-11.94l11.29-2.21-19.65-3.84c-14.4-11.96-24.43-29-27.36-48.36l20.48-4.01-21.27-4.16c-.05-1.19-.08-2.38-.08-3.59s.03-2.38.08-3.56l6.69-1.31 24.09-4.71-24.09-4.71-5.27-1.03c7.12-35.8 38.71-62.79 76.61-62.79" style="fill:url(#Dégradé_sans_nom_11);fill-rule:evenodd"/>
        <path class="cls-4" d="M54.22 107.32c-.54-1.42-1.28-2.79-2.15-3.99-3.81-5.29-9.91-7.49-16.2-8.06l-1.85-.16-.64-1.74c-1.5-4.05.93-9.64 2.68-13.34 2.77-5.86 6.12-11.48 9.26-17.16 6.8-12.32 16.09-29.92 14.21-44.36-.39-2.99 2.77-5.22 5.45-3.86 3.38 1.71 6.26 4.45 8.36 7.58 2.05 3.05 3.38 6.46 4.16 10 1.59-1.34 4.18-1.22 5.54.72 2.99 4.27 4.4 9.74 4.83 15.13 1.86-1.74 5.21-1.18 6.15 1.54 1.38 4 1.67 8.56 1.35 13.02 1.57-1.45 4.21-1.36 5.6.5.57.77 1.03 1.6 1.39 2.48 7.45-3.15 14.73-7.04 21.68-11.13 7.96-4.68 15.73-9.79 23.21-15.19 7.65-5.52 15.11-11.43 22.13-17.73 6.75-6.05 13.5-12.78 18.9-20.08 1.05-1.41 2.86-1.9 4.48-1.23 1.6.66 2.52 2.26 2.3 3.97-1.33 10.1-4.4 20.74-9.13 30.04.82-.45 1.63-.93 2.42-1.41 2.87-1.77 6.47.85 5.65 4.12-1.96 7.89-5.69 15.81-10.55 22.57.95-.44 1.89-.93 2.78-1.47 2.9-1.75 6.47.94 5.6 4.21-3.81 14.31-11.04 21.82-21.79 29.74 2.22.09 4.45.08 6.49-.14 3.06-.34 5.23 2.99 3.68 5.65-4.13 7.11-10.08 11.65-16.99 15.18 2.84.39 4.26 3.79 2.41 6.1-4.04 5.05-9.93 8.43-16.14 10.26.73 1.37.61 3.17-.62 4.43-2.65 2.71-6.77 4.25-10.81 5.1 10.59 6.12 23.04 11.38 35.15 10.42 6.35-.51 12.1-2.68 17.33-6.28 2.78-1.92 6.53.58 5.84 3.88-.89 4.23-2.82 8.31-5.48 11.71-2.75 3.51-6.18 6.22-10.05 8.21 2.62.63 5.31 1.02 7.94 1.1 3.36.1 4.93 4.24 2.47 6.53-2.61 2.44-5.72 4.25-9.06 5.51 1.62.35 3.27.56 4.92.64 3.59.16 4.94 4.82 1.99 6.87-6.36 4.43-15.75 5.34-23.92 4.43a42.49 42.49 0 0 0 4.21 3.31c2.96 2.04 1.63 6.7-1.96 6.88-5.74.29-11.06-.99-16.05-3.82-5.84-3.31-10.33-8.22-14.84-13.09-2.45-2.64-6.57-7.33-10.29-8.28.5.86.67 1.92.31 3.03-1.47 4.51-4.53 7.97-8.84 9.72.04 4.09-.26 8.53-.98 12.47-.71 3.95-2.04 8.5-4.78 11.53-2.59 2.87-6.14 4.47-10.01 3.61-3.06-.68-5.62-2.79-7.18-5.47-1.76-3.03-2.17-6.58-1.34-9.97.19-.76.59-1.41 1.13-1.9-.21-.37-.4-.76-.58-1.15-.23 0-.47-.01-.7-.05-1.76-.25-3.78-1.88-5.21-3.24-2.79.05-5.98-.35-8.52-1.31-1.77-.67-3.51-1.7-5.13-2.83-1.49 4.35-4.23 8.51-8.97 9.49-.67.14-1.35.2-2.03.18-4.62-.11-8.66-3.58-10.88-7.41-1.9-3.27-2.8-7.29-1.66-10.97.22-.71.62-1.3 1.13-1.74-3.96-1.55-6.5-5.5-6.79-9.74-.21-3.02.73-5.95 2.67-8.25.82-3.87 2.69-7.53 5.98-9.88.51-.36 1.03-.68 1.57-.95l-2.41-.2c-.99.46-1.94 1.02-2.86 1.67-3.44 2.42-6.33 6.05-8.07 9.9.16.72.33 1.44.52 2.15.77 2.94-2.14 5.57-4.99 4.49-4.77-1.8-9.96-4.81-12.93-9.06-.51-.73-.58-.98-.52-1.87l.72-10.81c-1.63-2.52-2-5.22-1.09-8.21.58-1.9 1.42-3.81 2.16-5.66 1.25-3.13 2.5-6.25 3.59-9.44.94-2.77 2.29-6.9 2.31-9.81.02-2.44 2.35-4.23 4.71-3.63.86.22 1.71.56 2.48 1.02 2.84-3.2 6.47-6.09 10.54-7.27 1.93-.56 3.84.51 4.55 2.2h.03"/>
        <path class="cls-4" d="M102.37 65.65c7.45-3.15 14.73-7.04 21.68-11.13 7.96-4.68 15.73-9.79 23.21-15.19 7.65-5.52 15.11-11.43 22.13-17.73 6.75-6.05 13.5-12.78 18.9-20.08 1.05-1.41 2.86-1.9 4.48-1.23 1.6.66 2.52 2.26 2.3 3.97-1.33 10.1-4.4 20.74-9.13 30.04.82-.45 1.63-.93 2.42-1.41 2.87-1.77 6.47.85 5.65 4.12-1.96 7.89-5.69 15.81-10.55 22.57.95-.44 1.89-.93 2.78-1.47 2.9-1.75 6.47.94 5.6 4.21-3.81 14.31-11.04 21.82-21.79 29.74 2.22.09 4.45.08 6.49-.14 3.06-.34 5.23 2.99 3.68 5.65-4.13 7.11-10.08 11.65-16.99 15.18 2.84.39 4.26 3.79 2.41 6.1-4.04 5.05-9.93 8.43-16.14 10.26.73 1.37.61 3.17-.62 4.43-2.65 2.71-6.77 4.25-10.81 5.1 10.59 6.12 23.04 11.38 35.15 10.42 6.35-.51 12.1-2.68 17.33-6.28 2.78-1.92 6.53.58 5.84 3.88-.89 4.23-2.82 8.31-5.48 11.71-2.75 3.51-6.18 6.22-10.05 8.21 2.62.63 5.31 1.02 7.94 1.1 3.36.1 4.93 4.24 2.47 6.53-2.61 2.44-5.72 4.25-9.06 5.51 1.62.35 3.27.56 4.92.64 3.59.16 4.94 4.82 1.99 6.87-6.36 4.43-15.75 5.34-23.92 4.43a42.49 42.49 0 0 0 4.21 3.31c2.96 2.04 1.63 6.7-1.96 6.88-5.74.29-11.06-.99-16.05-3.82-5.84-3.31-10.33-8.22-14.84-13.09-2.45-2.64-6.57-7.33-10.29-8.28.5.86.67 1.92.31 3.03-1.47 4.51-4.53 7.97-8.84 9.72l-1.92-1.32-11.04-15.92-23.81 7.41 11.25-21.47-14.25-61.13 23.2-28.82 1.19-2.53Z"/>
        <path d="M39.38 115c2.78-3.48 6.57-6.82 10.79-8.05 1.3-.38 2.58.71 2.4 2.06-.04.3-.07.6-.1.91 1.34-.55 2.72-.96 4.16-1.18-.56-2.31-1.66-4.6-3.03-6.5-4.14-5.74-10.7-8.22-17.56-8.83l-.66-.06-.23-.62c-1.25-3.39 1.12-8.72 2.61-11.88 2.61-5.52 6.23-11.68 9.2-17.05 7.06-12.79 16.38-30.58 14.43-45.51-.2-1.5 1.38-2.62 2.73-1.93 3.09 1.57 5.73 4.09 7.65 6.95 3 4.47 4.34 9.78 4.69 15.11.7-1.21 1.28-2.5 1.68-3.83.46-1.51 2.45-1.83 3.36-.53 4.01 5.73 4.95 13.9 4.56 20.71 1.03-1.45 1.96-3.01 2.66-4.63.68-1.58 2.96-1.5 3.52.13 2.14 6.2 1.46 13.97.02 20.26 1.54-1.78 2.98-3.78 3.99-5.91.61-1.28 2.37-1.45 3.22-.32.86 1.15 1.41 2.49 1.71 3.89 15.75-6.37 33.68-17.57 47.18-27.32 13.73-9.92 31.12-24.27 41.44-38.21 1.15-1.56 3.65-.55 3.39 1.37-1.56 11.86-5.61 24.59-11.93 34.75 2.69-1.25 5.56-2.7 8.09-4.27 1.44-.89 3.24.42 2.83 2.06-2.43 9.77-7.67 19.61-14.39 27.06 3.26-.91 6.52-2.14 9.43-3.89 1.45-.87 3.24.47 2.8 2.11-4.24 15.9-12.89 23.05-25.33 31.73 3.61.33 8.46.62 12.06.22 1.54-.17 2.62 1.49 1.84 2.83-5.08 8.73-13.08 13.36-21.94 17.09 1.94.42 4.15.8 6.14.89 1.54.07 2.35 1.87 1.38 3.07-4.72 5.9-12.2 9.36-19.51 10.64.68.33 1.38.6 2 .76 1.4.37 1.88 2.12.87 3.15-3.49 3.56-10.15 4.89-14.93 5.33 11.78 7.38 26.43 14.53 40.77 13.39 6.68-.53 12.74-2.81 18.25-6.6 1.4-.96 3.27.28 2.92 1.94-.83 3.95-2.64 7.77-5.12 10.94-3.65 4.67-8.57 7.77-14.07 9.66 4.22 1.57 8.9 2.57 13.39 2.7 1.68.05 2.47 2.12 1.24 3.27-3.9 3.65-9.07 5.8-14.32 6.71 3.56 1.6 7.49 2.52 11.39 2.7 1.8.08 2.47 2.41 1 3.44-7.41 5.17-19.53 5.18-28.13 3.17 2.38 2.95 5.38 5.57 8.43 7.68 1.48 1.02.82 3.35-.98 3.44-5.39.27-10.34-.92-15.03-3.58-11.5-6.52-18.15-20.21-26.11-21.68a8.95 8.95 0 0 0-1.16-.13c-.58.1-1.37.48-1.85.77-.91.55-1.71 1.28-2.4 2.1.46-.18.9-.38 1.27-.59 1.49-.83 3.25.61 2.72 2.24-1.44 4.42-4.55 7.64-8.96 8.99.13 4.2-.19 9.4-.92 13.45-.64 3.55-1.85 7.87-4.32 10.6-7.2 7.97-17.74-.2-15.3-10.12a1.894 1.894 0 0 1 2.52-1.31c-1.24-1.01-2.08-2.76-2.62-4.33-.49.22-1.04.31-1.61.23-1.42-.2-3.53-2.08-4.73-3.28-2.71.14-6.07-.2-8.59-1.16-2.41-.91-4.87-2.63-6.85-4.24-1.02 4.43-3.38 9.8-8.3 10.82-7.07 1.46-14.69-8.38-12.39-15.79.43-1.38 2.18-1.79 3.17-.75.44.46 1.06.91 1.71 1.26-.29-1.76-.89-3.44-1.9-4.94-.49.58-1.21.9-2.14.65-3.76-1.01-6.16-4.58-6.42-8.38-.18-2.7.71-5.28 2.54-7.25.67-3.57 2.3-7.05 5.32-9.21 5.28-3.77 12.4-1.68 14.45 4.75 3.14.65 4.53 3.05 5.32 5.94.29 1.06.48 2.13.74 3.19 2.25-9.6-7.04-17.19-16.19-17.95l-2.98-.25 2.72-1.8c-3.53.17-6.89 1.39-9.95 3.55-3.88 2.73-7.1 6.87-8.95 11.25.19.95.42 1.9.66 2.83.39 1.48-1.07 2.79-2.5 2.25-4.39-1.66-9.31-4.45-12.05-8.37-.26-.37-.22-.21-.19-.66.26-3.82.51-7.64.77-11.46-.05-.15-2.55-2.75-1.21-7.14.46-1.5 1.5-4 2.1-5.5 1.95-4.86 6-14.78 6.04-19.94a1.9 1.9 0 0 1 2.36-1.82c1.19.31 2.37.9 3.24 1.78" style="fill:#14243d;fill-rule:evenodd"/>
        <path class="cls-4" d="M36.84 162.22s-4.4-1.04-6.04-4.45c0 0-.93-3.36.18-8.83 0 0 1.4-.54 2.18-1.58 0 0-.48 1.79-.22 3.82 1.48-4.01 6.91-6.1 10.51-2.82-1.11.6-2.12 1.25-3.01 1.94.68-.14 2.23-.39 3.61-.24-3.18 1.62-3.88 2.83-5.92 5.53 0 0-.11-1.95.42-3.56-2.59 2.85-3.38 6.29-1.7 10.18"/>
        <path class="cls-3" d="M36.84 162.22s-4.4-1.04-6.04-4.45c0 0-.93-3.36.18-8.83 0 0 .56-.22 1.17-.64-.84 3.53-.41 7.97-.41 7.97.97 3.03 5.11 5.94 5.11 5.94"/>
        <path class="cls-4" d="M39.11 146.74c1.5-.05 3.04.43 4.34 1.61-1.11.6-2.12 1.25-3.01 1.94.68-.14 2.23-.39 3.61-.24-3.18 1.62-3.88 2.83-5.92 5.53 0 0-.11-1.95.42-3.56-2.59 2.85-3.38 6.29-1.7 10.18 0 0-2.96-3.2-3.07-5.87 0 0 2.33-5.14 4.98-7.19 0 0-2.15.91-3.78 2.61 0 0 1.13-2.93 4.14-5.02"/>
        <path d="M30.18 141.98c.69-2.92 7.23-15.4 6.48-21.06 0 0 2.3.46 2.8 1.99 0 0 4.6-7.53 8.27-10.18 0 0-.58 3.34-.49 6.86 0 0 11.59-8.83 25.09-7.19 0 0-10.44 4.43-16.61 12.09 9.04.7 18.51 5.54 23.38 13.05 0 0-4.37-1.8-9.01-1.28 0 0 10.91 4.27 15.64 13.43 0 0-4-2.54-7.68-3.43 0 0 4.78 4.93 5.89 13.96 0 0-7.12-8.85-14.07-12.04 0 0 4.01-.06 6.68.46-6.81-5.49-15.25-6-22.37-3.69 0 0 4.05-4.85 9.87-5.58-7.21-1.51-11.51 1.63-16.46 6.46-3.49-1.53-6.45-2.15-10.38-.98 1.46-3.52 4.68-3.43 4.08-6.87-.48 1.45-2.08 2.11-2.08 2.11 1.65-2.46-.66-3.87-.66-3.87.53-1.13 1.79-1.69 1.79-1.69-3.81-1.07-6.36 5.32-6.75 7.61-.66 3.92-4.23 3.31-3.42-.17" style="fill:#adbfce;fill-rule:evenodd"/>
        <path class="cls-3" d="M30.18 141.98c.69-2.92 7.23-15.4 6.48-21.06 2.07 1.2 2.35 3.17 2.35 3.17.21-.69.45-1.18.45-1.18s4.6-7.53 8.27-10.18c-2.62 4.07-2.15 8.71-2.15 8.71.58-.9 1.66-1.85 1.66-1.85s11.59-8.83 25.09-7.19c-13.04 1.18-21.32 12.36-21.32 12.36 1.62-.33 4.71-.27 4.71-.27 6.34.49 12.9 3.02 17.93 7.08-10.66-3.97-22.51.82-22.51.82 4.96-.24 7.57 1.75 7.57 1.75-11.22.91-16.47 10.15-16.47 10.15-1.57-.14-3.19.01-5.02.56 1.46-3.52 4.68-3.43 4.08-6.87-.13.39-.34.73-.58 1 .29-1.74-.86-3.31-1.31-3.85.48-.41.94-.61.94-.61-7.34-4.01-6.91 9.24-8.69 10.3-1.01.14-1.93-.9-1.47-2.85"/>
        <path class="cls-4" d="M84.27 94.29s-2.06 3.72-6.7 7.69c-.96-.05-3.05-.18-4.18-.43 0 0 1.81-1.86 2.93-5.04 1.65-.1 4.7-.54 7.95-2.23m3.92-12.75c-.2 6.21-5.9 10.74-11.27 12.75.08-.44.15-.9.19-1.37 0 0-2.89.14-4.03.17 0 0 .99-1.61 1.73-4.03 4.68-1.38 11.46-5.4 13.38-7.52"/>
        <path class="cls-4" d="M77.67 88c4.23-1.8 8.97-4.76 10.52-6.47-2.31 7.66-10.78 9.8-10.78 9.8.18-.96.24-2.36.26-3.33m9.76-23.91c2.03 9.29-4.27 17.97-12.04 22.5.19-1.16.28-2.42.18-3.72 0 0-3.11 1.47-5.14 1.94 0 0 1.07-3.06 1.03-6.67s10.46-5 15.97-14.04"/>
        <path class="cls-4" d="M74.8 76.23c3.54-2.22 9.1-6.36 12.63-12.14-.59 12.57-11.86 16.88-11.86 16.88-.18-1.51-.52-3.46-.77-4.74m3.3-29.51c.91 1.52 2.41 5.93 2.04 11.65-.06.75-1.06 11-8.89 17.32-.22-1.27-.62-2.55-1.29-3.72 0 0-2.23 2.36-4.5 3.93 0 0 .14-2.99-.54-6.58S75.93 57.25 78.1 46.73"/>
        <path class="cls-4" d="M67.47 66.27c3.39-4.25 9.12-12.27 10.62-19.55.47 14.4-8.88 23.1-8.88 23.1-.52-1.21-1.29-2.68-1.75-3.55"/>
        <path class="cls-4" d="M40 88.89c1.9-9.34 24.25-37.88 25.8-64.08 7.16 8.92 4.32 32.2-1.41 42.25-.63-2.22-1.62-4.47-3.17-6.27-3.1 6.39-6.18 11.72-9.04 18.45 0 0 7.17-7.68 9.09-13.1 0 0 1.68 9.29-1.5 17.66 2.16-.84 5.42-3.27 8.59-6.88 0 0 .61 7-5.1 13.07 1.62-.16 6.01-1.14 8.88-2.98 0 0-1.9 5.77-5.49 8.74 0 0 3.88.93 6.79.27 0 0-1.7 4.09-5.8 6.53 0 0 2.53 1.81 6.88 1.79-3.18 2.22-7.21 4.3-12.17 5.64-2.29-10.65-10.06-19.68-22.37-21.09"/>
        <path class="cls-3" d="M40 88.89c1.9-9.34 24.25-37.88 25.8-64.08 0 0 2.12 15.48-7.35 34.06-7.96 15.62-14.11 25.12-12.39 31.43-1.88-.68-3.9-1.17-6.06-1.41"/>
        <path class="cls-4" d="M65.79 24.82c7.16 8.92 4.32 32.2-1.41 42.25-.63-2.22-1.62-4.47-3.17-6.27 0 0 7.76-16.41 4.57-35.98m7.67 71.2s-1.7 4.09-5.8 6.53c-2.88.28-5.29.25-5.29.25 5.84-.86 11.08-6.78 11.08-6.78m-1.3-9.01s-1.9 5.77-5.49 8.74c-2.15-.08-4.09-.31-4.09-.31 6.07-2.23 9.58-8.43 9.58-8.43m-3.78-10.09s.61 7-5.1 13.07c-1.6.26-4.15.56-4.15.56 6.99-3.67 9.25-13.63 9.25-13.63m-7.08-10.77s1.68 9.29-1.5 17.66l-4.82 2.06c6.59-7.61 6.33-19.71 6.33-19.71m11.75 51.68c5.18-3.92 19.78-16.28 22.39-38.5 0 0 59.3-26.29 81.6-53.19-4.03 24.91-48.85 42.63-69.78 53.1 5.04-.24 20.2-5.18 26.93-8.36-6.3 11.11-21.49 15.48-32.33 17.97 0 0 13.19 1.9 22.7.49 0 0-4.87 7.7-26.06 8.36 0 0 10.6 4.47 18.05 4.51-6.79 4.14-17.92 4.57-25.22 1.73 0 0 5.8 6.57 18.41 8.21-5.03 3.38-15.27 2.37-20.64 0 0 0 6.33 6.46 15.69 7.15-5.39 3.17-15.84 2.28-21.64.4 0 0 1.29 2.44 3.97 4.09 0 0-1.79 1.2-4.52 1.77 5.36 1.43 13.85 4.42 17.55 9.67-1.46-.1-3.61.28-5.44.82 0 0 13.12 6.48 18.52 14.27.25-1.9-.44-4.74-1.15-6.45 2.82.3 15.15 1.99 19.29 8.64 0 0 .09-4.03-3.7-8.16 9.65 2.05 11.4 13.67 27.39 14.78 0 0-5.51-2.35-7.5-6 10.67 4.99 24.26 5.25 35.51 2.21-9.9 10.67-35.74 9.42-47.84 2.79 0 0 11.02 11.68 26.66 13.83 0 0-5.52-3.05-7.73-5.38 0 0 4.97.59 8.77.49 0 0 7.89 5.16 18.2 5.82-13.89 5.49-32.94-.49-46.22-5.8 0 0 7.1 6.99 16.53 10.09 0 0-1.21-1.49-1.88-2.82 0 0 4.7 1.46 11.18 2.26 0 0 3.3 4.76 8.28 6.57 0 0-13.12-1.13-19.43-4.03-6.31-2.9-14.34-8.05-14.34-8.05s5.24 7.57 10.78 12.12c0 0-.71-2.15-.77-3.3 0 0 1.84 1.11 3.98 1.75 0 0 1.68 8.44 9.18 12.94-13.76-5.95-24.3-26.73-32.75-27.19 0 0 .64-1.5.13-4.18 0 0-3.21 6.46-8.61 8.5 0 0 5.22-7.57 4.12-14.74 0 0-3.32 7.85-10 10.51 0 0 2.04.77 4.8-.13 0 0-1.46 5.35-4.69 8.03 0 0 3.1.44 6.64-1.24 0 0-2.7 4.67-6.26 5.84 0 0 2.41 1.88 6.26 1.84 0 0-2.28 2.39-7.26 1.64 0 0-.11-3.36-2.96-4.89-2.85-1.53-6.46-.22-6.46-.22s1.34-11.41-7.14-18.04c.29 2.72-.6 6.03-.6 6.03s-2.68-7.9-8.52-13.43c0 0 4.51.66 6.73 2.39 0 0-1.04-9.78-9.67-15.22 0 0 3.21-.2 6.03.75-5.12-7.04-10.39-13.26-18.84-16.57-1.38-2.42 1.42-4.74 3.69-6.45"/>
        <path d="M82.59 125.56c5.36 1.43 13.85 4.42 17.55 9.67-1.46-.1-3.61.28-5.44.82 0 0 13.12 6.48 18.52 14.27.25-1.9-.44-4.74-1.15-6.45 2.82.3 15.15 1.99 19.29 8.64 0 0 .09-4.03-3.7-8.16 0 0 7.59 4.33 10.7 11.69 11.26 7.91 34.56 4.99 44.71-.69-9.9 10.67-35.74 9.42-47.84 2.79 0 0 11.02 11.68 26.66 13.83 0 0-5.52-3.05-7.73-5.38 0 0 4.97.59 8.77.49 0 0 .54.35 1.53.89-1.28.41-3.04.95-4.07 1.15 0 0 8.95 6.29 20.74 3.78-13.89 5.49-32.94-.49-46.22-5.8 0 0 7.1 6.99 16.53 10.09 0 0-1.21-1.49-1.88-2.82 0 0 1.48.46 3.94 1.01.17.82.46 2.1.82 3.02 0 0 7.99 4 14.7 4.8 0 0-13.12-1.13-19.43-4.03-6.31-2.9-14.34-8.05-14.34-8.05s5.24 7.57 10.78 12.12c0 0-.71-2.15-.77-3.3 0 0 1.84 1.11 3.98 1.75 0 0 1.68 8.44 9.18 12.94-13.76-5.95-24.3-26.73-32.75-27.19 0 0 .64-1.5.13-4.18 0 0-3.21 6.46-8.61 8.5 0 0 5.22-7.57 4.12-14.74 0 0-3.32 7.85-10 10.51 0 0 2.04.77 4.8-.13 0 0-1.46 5.35-4.69 8.03 0 0 3.1.44 6.64-1.24 0 0-2.7 4.67-6.26 5.84 0 0 2.41 1.88 6.26 1.84 0 0-2.28 2.39-7.26 1.64 0 0-.11-3.36-2.96-4.89-.24-.13-.48-.23-.72-.32.13-6.4-2.26-12.73-5.86-15.68 1.66 2.46 2.26 9.47 2.26 9.47-2.5-9.14-9.28-11.73-9.28-11.73.29 2.72-.6 6.03-.6 6.03s-2.68-7.9-8.52-13.43c0 0 4.51.66 6.73 2.39 0 0-1.04-9.78-9.67-15.22 0 0 3.21-.2 6.03.75 0 0-2.13-9.84-9.47-15.85 1.2.15 2.49.33 3.86.55" style="fill:#14243d;fill-rule:evenodd;stroke:#14243d;stroke-miterlimit:10"/>
        <path class="cls-3" d="M77.59 114.02c6.46-6.01 15.8-17.34 17.84-34.68 0 0 .84-.37 2.33-1.06-1.13 14.09-7.89 27.83-20.18 35.74Zm56.59-43.13c-6.3 11.11-21.49 15.48-32.33 17.97l1.53-2.42s21.59-4.06 30.79-15.55"/>
        <path class="cls-4" d="M107.25 79.25s8.48.04 17.97-1.89c5.05-2.98 8.95-6.47 8.95-6.47-6.73 3.19-21.88 8.12-26.93 8.36Z"/>
        <path class="cls-3" d="M95.08 81.88c.14-.83.26-1.68.36-2.54 0 0 59.3-26.29 81.6-53.19-18.24 26.18-56.92 44.36-81.96 55.73"/>
        <path class="cls-4" d="M89.09 112.16s6.33 6.46 15.69 7.15c0 0-3.07.48-6.96.48-6.14-2.62-8.72-7.63-8.72-7.63m2.22-8.21s5.8 6.57 18.41 8.21c0 0-3.4.8-7.8.59-7.15-3.22-10.61-8.8-10.61-8.8m7.17-6.24s10.6 4.47 18.05 4.51c0 0-3.09.7-7.43 1.02-6.93-2-10.62-5.53-10.62-5.53m3.36-8.85s13.19 1.9 22.7.49c0 0-3.8 2.08-9.36 3.18-7.49-1.17-13.34-3.67-13.34-3.67m40.3-22.93s28.54-14.65 39.43-22.66c-8.43 22.5-26.96 29.08-47.67 35.86 3.56-4.26 6.1-8.04 8.24-13.21"/>
        <path class="cls-4" d="M142.15 65.93s28.54-14.65 39.43-22.66c-8.45 17.36-39.52 28.93-39.52 28.93.58-3.89.09-6.27.09-6.27"/>
        <path class="cls-3" d="M142.15 65.93s28.54-14.65 39.43-22.66c-11.46 10.91-36.37 24.36-36.37 24.36l-3.05-1.7Z"/>
        <path class="cls-4" d="M123.87 95.09c2.07-2.16 4.35-4.78 6.06-9.05-.92.28-2.09.44-3.22.52 1.65-1.37 3.32-3.06 4.84-4.73 6.5-1.11 37.07-6.52 47.41-12.21-13.56 21.56-30.9 25.49-55.09 25.47"/>
        <path class="cls-4" d="M138.59 80.57c11.61-2.17 32.24-6.48 40.37-10.95-13.12 12.2-34.45 17.67-43.79 19.17 1.67-2.88 2.82-6.24 3.42-8.23m-17.6 17.52s27.81 4.58 47.59.51c-15.92 13.98-33.64 15.1-53.37 9.51 0 0 5.04-2.9 7.7-6.86 0 0-3.95-.92-5.49-1.34 1.22-.45 2.44-1.02 3.56-1.83"/>
        <path class="cls-4" d="M130.95 99.32c9.89.98 25.32 1.8 37.63-.74-17.3 7.8-40.93 6.27-40.93 6.27 1.28-1.77 2.5-4 3.3-5.53m-17.34 9.89s20.27 9.87 44.65 8.41c-13.32 10.1-35.13 5.16-49.45-.44 1.26-.52 3.98-2.08 5.84-4.47 0 0-2.72-1.54-3.88-2.5 1.13-.29 1.98-.58 2.84-1"/>
        <path class="cls-4" d="M124.38 113.26c8.23 2.53 20.43 5.17 33.88 4.37-14.93 4.45-36.2-1.17-36.2-1.17.51-.65 1.62-2.21 2.32-3.2m-14.78 6.37s16.48 9.2 29.49 10.71c-11.94 3.68-25.98 2.78-40.14-4.12 0 0 6.9-1.92 10.64-6.59"/>
        <path class="cls-3" d="M94.2 191.29c-3.39-1.36-3.93-5.79-.8-5.6 0 0-.65 1.3-.24 3.1 0 0 .27-2.05.87-2.74.77.6-.3 2.95.17 5.24m6.41 6.54c-.94-1.48-2.46-5.19-.71-6.5-.34 1.51.23 3.13.23 3.13-.14-1.72.34-2.85.66-3.39.35.14 1.03.51 1.33 1.37-.81 1.67-1.19 3.65-1.5 5.39m7.34 2.8s-1.8-2.26-1.5-5.36c.26 1.19.78 2.13.78 2.13-.26-1.21-.21-2.39-.15-3.01 2.37.71 1.25 4.23.87 6.24m-7.23 9.74c-.39-.23-3.11-1.96-2.86-6.04 0 0 1.48 1.6 3.19 2.54 2.06 1.14 2.05 2.68 1.09 3.29-.6-.39-2.15-1.52-3.15-3.28 0 0 .28 1.98 1.74 3.48"/>
        <path class="cls-4" d="M104.07 211.3s2.29-2.09-.44-4.57c0 0 1.09-.19 1.64.44.78-4.39-2.86-6.89-1.95-10.83 0 0-.66.06-1.04.63-.55-1.87.85-3.91 2.98-3.6 0 0-1.66 5.28 2.65 9.04 0 0 1.71-1.68 2.09-4.1 1.02 4.13.11 13.96-5.92 12.98"/>
        <path class="cls-4" d="M109.26 200.5c.32-.62.61-1.36.74-2.19.91 3.7.28 11.98-4.21 12.96-.57.12-1.13.12-1.71.03l.45-.56c.49-.78.99-2.3-.89-4.01 0 0 1.09-.19 1.64.44.38.33 1.07 1.42.78 2.6 3.06-2.23 3.3-6.91 3.21-9.27m-9.28-11.84s.6-2.73 1.78-3.36c3.02-.29 2.85 3.37 2.1 5.26-.84-1.38-2.12-2.15-3.87-1.9"/>
        <path class="cls-4" d="M102.09 185.29c2.68 0 2.5 3.46 1.77 5.28-.34-.56-.76-1.02-1.25-1.35.87-1.96.18-3.22-.52-3.93m4.11 7.1s.55-2.51 1.56-3.58c1.48-1.58 3.69.31 3.54 2.19-.06.76-.52 3-.52 3-1.35-1.82-2.36-2.44-4.58-1.61"/>
        <path class="cls-4" d="M108.46 188.32c1.39-.54 2.97 1.07 2.85 2.67-.06.76-.52 3-.52 3-.79-1.07-1.47-1.72-2.34-1.91.93-1.76.48-3.05.01-3.76m-8.98-5.65c2.66-3.98 7.29-2.34 8.39 1.97l-1.1.7c-1.53-3.63-4.14-4.54-7.3-2.67m-8.6 1.82c-.94-3.14 2.32-5.16 4.58-1.57.45.72 1.93 2 3.1 2.32 0 0-1.13 2.46-.55 5.21 0 0-.52-1.63-2.2-2.59 1.26-4.04-3.38-5.91-4.92-3.37"/>
        <path class="cls-4" d="M94.32 181.62c.39.3.77.73 1.13 1.3.45.72 1.93 2 3.1 2.32 0 0-1.13 2.46-.55 5.21 0 0-.52-1.63-2.2-2.59.65-2.09-.28-3.6-1.54-4.22.24-.76.2-1.46.07-2.03M80 161.26s6.2 1.81 9.65 6.39c0 0-1.69-.07-3.44.17 0 0 7.57 4.03 8.96 11.24-4.37-1.63-8.16.34-7.66 5.64 0 0-3.54-.46-5.97-2.39 0 0 .8 4.1 3.39 6.28 0 0-5.53-.69-7.88-4.54 0 0 1.77-3.67.09-7.39 4.29-3.77 4.14-10 2.87-15.41"/>
        <path class="cls-3" d="M53.37 174.16s-1.84-1.48-1.96-3.4c-.12-1.91.97-3.24.97-3.24s.02.01.05.03c-.58 2.02.12 4.3.12 4.3-.16-1.66.3-2.98.62-3.67.5.47 1.07 1.12 1.17 1.7.18 1.06-.81 2.53-.97 4.27m3.09-5.32c-2.71-2.43-1.89-5.66.02-8.3 0 0 .32.17.75.45-1.29 1.83-1.04 4.14-1.04 4.14a9.307 9.307 0 0 1 1.8-3.58c.69.56 1.38 1.32 1.5 2.12.25 1.69-2.43 2.07-3.04 5.16m3.88 23.42c-2.79.31-4.33-3.12-4.13-5.46 0 0 .91.91 2.16 1.47 1.16.52 3.62 1.44 2.64 3.45-.61-.19-2.36-.83-3.43-2.17 0 0 .83 1.99 2.76 2.71m2.03-17.37c-1.53-2.94-.56-6.89 2.74-8.05 0 0 .26.48.5 1.12-.7.41-2.12 1.44-2.82 3.3 0 0 1.33-1.64 3.09-2.42.1.43.14.87.08 1.26-.22 1.32-2.47 2.23-3.58 4.79"/>
        <path class="cls-4" d="M62.33 194.36c2.01-1.95 1.65-6.09-1.37-6.98 0 0 1.08-.87 1.89-.74-.32-5.1-2.59-11.97-6.92-15 0 0 .98-.2 2.02.02-.81-2.88 1.27-4.31 2.82-5.99 2.54-2.73 1.75-5.9-1.48-7.72 0 0 4.25-.17 5.89 3.21-1.88 1.95-2.85 3.9-2.98 6.63 0 0-.72-.3-.94-1.01-2.55 3.79-1.84 7.62 1.26 10.78.67-2.56 3.39-4.06 5.04-5.95 2.17-2.49 1.43-5.48-1.53-6.98 4.65-.83 5.05 2.97 5.62 6.29.5 2.94 1.17 5.97 3.18 7.6 0 0-.35 2.89-1.41 3.34-1.05.45-3.16-1.97-3.79-5.16-1.51 4.13 1.94 18.77-7.3 17.67"/>
        <path class="cls-4" d="M64.75 179.9c-.07.73-.09 1.69.11 2.61.4 1.84 2.27-.01 1.97-1.95-.51-3.28-1.81-3.48-2.08-.67m-1.9 6.73c-.32-5.1-2.59-11.97-6.92-15 0 0 .98-.2 2.02.02-.81-2.88 1.27-4.31 2.82-5.99 1.13-1.22 1.6-2.53 1.49-3.76.44.28.9.68 1.33 1.24-.85 1.35-1.3 2.82-1.39 4.63 0 0-.72-.3-.94-1.01-2.55 3.79-1.84 7.62 1.26 10.78.67-2.56 3.39-4.06 5.04-5.95.52-.59.87-1.21 1.07-1.84s.6-1.09 1.54-1.11c.38 0 .82.26 1.19.58.11.56.2 1.12.29 1.67.5 2.94 1.17 5.97 3.18 7.6 0 0-.35 2.89-1.41 3.34-1.05.45-3.16-1.97-3.79-5.16-2.28 3.21-.48 8.66-3.12 13.08-.41-1.34-1.41-2.66-3.66-3.13Z"/>
        <path class="cls-3" d="M37.33 137.06s1.96 1.35.61 3.74c0 0 .36-2.15-1.21-3.02l.6-.72Z"/>
        <path class="cls-4" d="M35.96 139.42s-.74 1.97-.82 2.73c0 0 1.42-.74 1.7-1.52.27-.78-.03-1.47-.87-1.21"/>
        <path class="cls-7" d="M29.38 239.69c-1.47 0-2.91-.56-3.99-1.61a5.778 5.778 0 0 1-1.58-5.63c.95-3.57 1.92-7.16 2.91-10.69a5.776 5.776 0 0 1 2.93-3.58c1.76-6.28 3.61-12.59 5.51-18.87a5.726 5.726 0 0 1-.45-4.51c1-3.17 1.99-6.3 3-9.37a5.772 5.772 0 0 1 5.47-3.98c.41 0 .83.04 1.24.14 5.93 1.31 12.16 2.31 19.07 3.06 1.64.18 3.13 1.06 4.08 2.4.95 1.35 1.28 3.04.9 4.65-.91 3.85-1.82 7.74-2.72 11.67a5.763 5.763 0 0 1-5.61 4.47c-.05 0-2-.05-2.93-.08-.18.68-.35 1.35-.53 2.03.13 0 .26-.01.39-.01 1.65 0 3.24.71 4.34 1.97a5.74 5.74 0 0 1 1.28 5.06c-.91 4.03-1.82 8.11-2.72 12.25a5.751 5.751 0 0 1-4.59 4.43c-8.18 1.5-16.36 3.5-24.3 5.94-.56.17-1.13.26-1.69.26Z"/>
        <path class="cls-7" d="M57.44 232.99a5.75 5.75 0 0 1-4.15-1.77 5.758 5.758 0 0 1-1.49-5.17c.56-2.69 1.12-5.36 1.68-8.01a5.782 5.782 0 0 1 2.8-3.83l.12-.58c.83-4.08 1.66-8.11 2.48-12.11a5.782 5.782 0 0 1-.89-4.5c.56-2.56 1.12-5.1 1.67-7.63a5.768 5.768 0 0 1 5.62-4.52c.18 0 .36 0 .54.03 6.23.58 12.62.94 19.53 1.09 1.58.03 3.07.72 4.14 1.89a5.753 5.753 0 0 1 1.48 4.3l-.76 10.43a5.764 5.764 0 0 1-5.75 5.34h-2.35l-.58 4.57a5.764 5.764 0 0 1-4.3 4.86c.07.52.07 1.06-.01 1.6l-1.09 7.32a5.753 5.753 0 0 1-5.08 4.89c-4.21.45-8.47 1.04-12.66 1.74-.32.05-.64.08-.96.08Z"/>
        <path class="cls-7" d="M114.37 230.93c-.18 0-.36 0-.53-.03-3.52-.33-7.09-.57-10.6-.72a5.733 5.733 0 0 1-3.17-1.12c-.93.61-2.02.94-3.15.94h-.08c-.95-.01-1.9-.02-2.85-.02-2.57 0-5.18.05-7.77.14h-.21a5.79 5.79 0 0 1-4.11-1.72 5.802 5.802 0 0 1-1.65-4.35l.37-6.92c.09-1.74.96-3.28 2.25-4.27l.39-10.02s-.06-.06-.09-.1a5.77 5.77 0 0 1-1.56-4.25l.36-6.9c.16-3.07 2.7-5.46 5.75-5.46h.11a326.271 326.271 0 0 0 17.04-.12h.2c1.53 0 3 .61 4.09 1.7 1.13 1.14 2.3 2.28 3.49 3.44.96.92 1.56 2.15 1.72 3.47l1.31 11.15c.07.62.04 1.24-.08 1.84.26.55.43 1.13.5 1.74l.47 3.78c1.38.9 2.35 2.37 2.58 4.09l.94 7.21c.23 1.74-.35 3.48-1.56 4.74a5.764 5.764 0 0 1-4.15 1.76Z"/>
        <path class="cls-7" d="M142.73 235.47c-.43 0-.86-.05-1.28-.14-8.07-1.84-16.34-3.22-24.58-4.11a5.753 5.753 0 0 1-5.08-4.89l-1.09-7.32c-.24-1.65.24-3.32 1.32-4.59-.59-3.7-1.19-7.39-1.78-11.06a5.778 5.778 0 0 1-2.45-3.9l-1.07-7.18c-.24-1.6.2-3.23 1.22-4.48a5.728 5.728 0 0 1 4.13-2.12c6.96-.41 13.29-1.04 19.36-1.91a5.759 5.759 0 0 1 6.38 4.18c1.13 4.09 2.25 8.25 3.38 12.47a5.8 5.8 0 0 1-.96 4.95 5.787 5.787 0 0 1-4.49 2.3h-.25c.2.86.39 1.71.59 2.57l3.92.39a5.75 5.75 0 0 1 4.98 4.3c1.14 4.45 2.26 8.95 3.35 13.39.48 1.94-.09 3.99-1.49 5.41a5.784 5.784 0 0 1-4.11 1.72Z"/>
        <path class="cls-7" d="M158.54 239.69c-.57 0-1.14-.08-1.69-.26-4.09-1.26-8.27-2.41-12.41-3.41a5.767 5.767 0 0 1-4.23-4.2c-.78-3.1-1.56-6.15-2.34-9.16-.41-1.58-.13-3.24.74-4.59-1.38-5.12-2.79-10.24-4.27-15.48a5.768 5.768 0 0 1-2.84-3.53c-.79-2.82-1.58-5.61-2.37-8.37-.45-1.59-.21-3.29.68-4.69a5.746 5.746 0 0 1 3.96-2.59c3.36-.53 6.63-1.14 9.72-1.83.42-.09.83-.14 1.24-.14a5.74 5.74 0 0 1 5.47 3.98c1 3.07 2 6.19 3 9.37.47 1.51.3 3.14-.45 4.52 1.91 6.28 3.75 12.59 5.51 18.87 1.41.72 2.49 2.01 2.93 3.58.98 3.53 1.96 7.13 2.91 10.69.54 2.02-.07 4.18-1.58 5.63a5.757 5.757 0 0 1-3.99 1.61Zm-130.48-3.02a5.88 5.88 0 0 1-5.69-7.39c.97-3.64 1.96-7.31 2.97-10.91a5.9 5.9 0 0 1 2.99-3.66c1.8-6.4 3.68-12.85 5.63-19.25a5.84 5.84 0 0 1-.46-4.61c1.02-3.24 2.04-6.42 3.06-9.56a5.883 5.883 0 0 1 6.86-3.92c6.05 1.33 12.41 2.35 19.46 3.13a5.872 5.872 0 0 1 5.08 7.19c-.93 3.93-1.85 7.9-2.78 11.91a5.89 5.89 0 0 1-5.73 4.56c-.05 0-2.04-.05-2.99-.08l-.54 2.07c.13 0 .26-.01.39-.01 1.69 0 3.31.73 4.43 2.01a5.898 5.898 0 0 1 1.31 5.16c-.93 4.12-1.85 8.28-2.78 12.5a5.87 5.87 0 0 1-4.68 4.52c-8.35 1.53-16.69 3.57-24.79 6.07-.57.18-1.15.26-1.73.26Z"/>
        <path class="cls-7" d="M56.69 229.83c-1.58 0-3.12-.64-4.24-1.8a5.862 5.862 0 0 1-1.52-5.28c.57-2.74 1.14-5.47 1.71-8.17a5.864 5.864 0 0 1 2.86-3.9l.12-.6c.85-4.16 1.69-8.28 2.53-12.36-.92-1.34-1.25-3-.9-4.59.57-2.61 1.14-5.2 1.71-7.78.6-2.72 3.01-4.61 5.74-4.61.18 0 .37 0 .55.03 6.36.59 12.88.96 19.93 1.12 1.61.04 3.14.73 4.22 1.92a5.88 5.88 0 0 1 1.51 4.38l-.78 10.64a5.882 5.882 0 0 1-5.86 5.45h-2.39l-.59 4.66a5.881 5.881 0 0 1-4.39 4.96c.07.53.07 1.08-.01 1.63L75.78 223a5.89 5.89 0 0 1-5.19 4.99c-4.3.46-8.64 1.06-12.92 1.78-.33.05-.65.08-.98.08Z"/>
        <path class="cls-7" d="M114.79 227.73c-.18 0-.36 0-.55-.03-3.6-.33-7.24-.58-10.82-.74a5.9 5.9 0 0 1-3.24-1.14 5.9 5.9 0 0 1-3.22.96h-.08c-.97-.01-1.94-.02-2.91-.02-2.62 0-5.29.05-7.92.14h-.21c-1.57 0-3.08-.63-4.19-1.76a5.868 5.868 0 0 1-1.68-4.43l.38-7.06c.09-1.78.98-3.34 2.3-4.36l.39-10.23s-.06-.06-.09-.1a5.906 5.906 0 0 1-1.59-4.34l.37-7.04a5.874 5.874 0 0 1 5.87-5.57h.11a328.706 328.706 0 0 0 17.39-.13h.2c1.56 0 3.06.62 4.17 1.73 1.16 1.16 2.34 2.33 3.56 3.51.98.94 1.59 2.19 1.75 3.54l1.34 11.38c.07.63.04 1.27-.08 1.88.26.56.44 1.16.51 1.78l.48 3.86c1.41.91 2.4 2.41 2.63 4.17l.96 7.36c.23 1.77-.36 3.55-1.6 4.84a5.847 5.847 0 0 1-4.23 1.8Z"/>
        <path class="cls-7" d="M143.73 232.36c-.43 0-.87-.05-1.31-.15-8.24-1.88-16.67-3.29-25.08-4.19a5.89 5.89 0 0 1-5.19-4.99l-1.11-7.47c-.25-1.69.24-3.39 1.35-4.68-.61-3.78-1.21-7.54-1.82-11.28a5.877 5.877 0 0 1-2.5-3.98l-1.1-7.32c-.25-1.63.21-3.29 1.25-4.58a5.853 5.853 0 0 1 4.22-2.16c7.1-.42 13.57-1.06 19.76-1.95a5.867 5.867 0 0 1 6.5 4.26c1.15 4.18 2.3 8.42 3.45 12.73.46 1.74.1 3.61-.98 5.05a5.866 5.866 0 0 1-4.58 2.34h-.26c.2.87.4 1.75.6 2.63 1.32.13 2.66.26 4 .4 2.45.26 4.48 2.01 5.09 4.39 1.16 4.54 2.31 9.14 3.42 13.67a5.86 5.86 0 0 1-1.52 5.52 5.865 5.865 0 0 1-4.19 1.76Z"/>
        <path class="cls-7" d="M159.86 236.67c-.58 0-1.16-.09-1.73-.26-4.18-1.28-8.44-2.46-12.66-3.48a5.904 5.904 0 0 1-4.32-4.28c-.79-3.16-1.59-6.27-2.39-9.35-.42-1.61-.13-3.31.76-4.68-1.4-5.22-2.85-10.45-4.36-15.8a5.852 5.852 0 0 1-2.89-3.6c-.81-2.88-1.61-5.73-2.42-8.54-.46-1.62-.21-3.36.69-4.78a5.925 5.925 0 0 1 4.04-2.65c3.43-.54 6.77-1.17 9.92-1.86a6.1 6.1 0 0 1 1.27-.14c2.49 0 4.78 1.6 5.59 4.06 1.02 3.13 2.04 6.32 3.06 9.56.48 1.54.31 3.21-.46 4.61 1.95 6.4 3.83 12.85 5.63 19.25a5.9 5.9 0 0 1 2.99 3.66c1 3.6 2 7.27 2.97 10.91.55 2.07-.07 4.26-1.61 5.75a5.876 5.876 0 0 1-4.08 1.64Zm-133.14-3.08c-1.53 0-3.02-.58-4.16-1.67a5.999 5.999 0 0 1-1.64-5.86c.98-3.71 2-7.46 3.03-11.13A6.004 6.004 0 0 1 27 211.2c1.83-6.53 3.76-13.11 5.74-19.65a5.975 5.975 0 0 1-.47-4.7c1.04-3.31 2.08-6.55 3.12-9.75a6 6 0 0 1 6.99-4c6.17 1.36 12.67 2.4 19.86 3.19a6.04 6.04 0 0 1 4.25 2.5c.99 1.4 1.33 3.17.94 4.84-.94 4.01-1.89 8.06-2.84 12.16a5.997 5.997 0 0 1-5.84 4.65c-.05 0-2.08-.05-3.05-.08-.18.7-.37 1.41-.55 2.12.13 0 .27-.01.4-.01 1.72 0 3.37.74 4.52 2.05a6.009 6.009 0 0 1 1.34 5.27c-.95 4.2-1.89 8.45-2.83 12.75a6.012 6.012 0 0 1-4.78 4.62 223.79 223.79 0 0 0-25.3 6.19c-.58.18-1.17.27-1.76.27Z"/>
        <path class="cls-7" d="M55.93 226.61a5.97 5.97 0 0 1-4.32-1.84 5.99 5.99 0 0 1-1.55-5.38c.58-2.8 1.17-5.58 1.75-8.34a5.98 5.98 0 0 1 2.92-3.98l.12-.61c.86-4.24 1.73-8.45 2.59-12.61a5.984 5.984 0 0 1-.92-4.69c.58-2.66 1.16-5.31 1.74-7.94a6.003 6.003 0 0 1 5.85-4.71c.19 0 .37 0 .56.03 6.49.6 13.14.98 20.34 1.14 1.64.04 3.2.75 4.31 1.96a5.976 5.976 0 0 1 1.54 4.47l-.8 10.86a5.994 5.994 0 0 1-5.98 5.56h-2.44l-.61 4.75a6.01 6.01 0 0 1-4.48 5.06c.07.55.07 1.11-.01 1.66l-1.13 7.62c-.4 2.7-2.58 4.8-5.29 5.09-4.39.47-8.82 1.08-13.18 1.82-.33.06-.67.08-1 .08Z"/>
        <path class="cls-7" d="M115.21 224.47c-.18 0-.37 0-.56-.03-3.67-.34-7.38-.59-11.04-.75a5.94 5.94 0 0 1-3.3-1.17c-.97.63-2.11.98-3.28.98h-.08a218.697 218.697 0 0 0-11.06.13h-.22a5.99 5.99 0 0 1-5.99-6.32l.38-7.2c.1-1.82 1-3.41 2.34-4.45l.4-10.44s-.06-.07-.1-.1a5.987 5.987 0 0 1-1.62-4.43l.38-7.18a6.01 6.01 0 0 1 5.99-5.69h.11c2.14.04 4.27.06 6.41.06 3.79 0 7.6-.06 11.33-.19h.21c1.59 0 3.13.63 4.25 1.77 1.18 1.19 2.39 2.38 3.64 3.58 1 .96 1.63 2.24 1.79 3.61l1.37 11.61c.08.65.05 1.29-.08 1.92.27.57.44 1.18.52 1.81l.49 3.94c1.43.93 2.45 2.46 2.68 4.26l.98 7.51a5.97 5.97 0 0 1-1.63 4.94 6.009 6.009 0 0 1-4.32 1.84Z"/>
        <path class="cls-7" d="M144.75 229.19c-.44 0-.89-.05-1.33-.15a223.21 223.21 0 0 0-25.59-4.28 5.987 5.987 0 0 1-5.29-5.09l-1.13-7.63c-.25-1.72.25-3.46 1.37-4.78-.62-3.86-1.24-7.69-1.86-11.51a5.955 5.955 0 0 1-2.55-4.06l-1.12-7.47c-.25-1.67.21-3.36 1.27-4.67a5.986 5.986 0 0 1 4.3-2.21c7.25-.43 13.84-1.08 20.16-1.99a6.004 6.004 0 0 1 6.64 4.35c1.17 4.26 2.34 8.59 3.52 12.99.47 1.78.1 3.68-1 5.15a6.015 6.015 0 0 1-4.67 2.39h-.26c.21.89.41 1.78.62 2.68 1.35.13 2.71.27 4.08.41 2.5.26 4.57 2.05 5.19 4.48 1.18 4.63 2.36 9.32 3.49 13.94a5.997 5.997 0 0 1-5.83 7.43Z"/>
        <path class="cls-7" d="M161.21 233.59c-.59 0-1.18-.09-1.76-.27-4.26-1.31-8.61-2.51-12.92-3.55a5.993 5.993 0 0 1-4.4-4.37c-.81-3.22-1.62-6.4-2.44-9.54-.43-1.64-.13-3.38.77-4.78-1.43-5.33-2.9-10.66-4.45-16.12a5.949 5.949 0 0 1-2.95-3.68c-.82-2.94-1.65-5.84-2.47-8.72a6.005 6.005 0 0 1 4.83-7.58c3.5-.55 6.9-1.19 10.13-1.9.43-.1.87-.14 1.3-.14a6 6 0 0 1 5.7 4.14c1.04 3.2 2.08 6.45 3.12 9.75.49 1.57.32 3.27-.47 4.7a893.27 893.27 0 0 1 5.74 19.65c1.47.75 2.59 2.09 3.05 3.73 1.02 3.67 2.04 7.42 3.03 11.13a5.993 5.993 0 0 1-5.8 7.53Z"/>
        <path class="cls-8" d="M51.1 194.19c.39-1.46.77-2.91 1.16-4.36-1.68-.11-3.35-.23-5.02-.37-.73 2.56-1.47 5.14-2.2 7.76 1.75.01 3.5.02 5.25.02-.77 2.92-1.53 5.88-2.3 8.86-1.84.14-3.69.29-5.52.44-.73 2.68-1.46 5.4-2.18 8.15 1.91-.31 3.83-.6 5.75-.87.38-1.53.77-3.06 1.15-4.57 2.77-.29 5.55-.55 8.34-.8-.95 4.21-1.89 8.47-2.84 12.78a226.16 226.16 0 0 0-25.98 6.36c1-3.76 2-7.44 3.01-11.06l2.12-.39c2.64-9.53 5.31-18.6 8-27.29-.62-.07-1.24-.13-1.85-.2 1.03-3.28 2.06-6.51 3.1-9.69 6.78 1.49 13.62 2.54 20.5 3.29-.95 4.02-1.89 8.08-2.84 12.18-2.55-.06-5.1-.14-7.64-.23Zm33.77-10.52c-.26 3.62-.53 7.24-.8 10.86-2.58 0-5.15-.01-7.72-.03l.48-3.72c-1.69-.03-3.38-.07-5.07-.12-.35 2.15-.7 4.3-1.05 6.46l5.31-.03c-.32 2.47-.63 4.95-.95 7.43-1.87.06-3.73.14-5.59.22-.35 2.17-.7 4.35-1.05 6.54.72-.06 1.44-.11 2.17-.16-.38 2.53-.75 5.08-1.13 7.63-4.52.49-9.04 1.11-13.54 1.86.58-2.79 1.16-5.57 1.74-8.32.72-.08 1.44-.16 2.16-.23.15-.73.29-1.45.44-2.18l.45-2.23c1.18-5.78 2.35-11.49 3.52-17.13-.63-.02-1.25-.05-1.88-.08.58-2.66 1.16-5.3 1.74-7.93 6.89.64 13.82 1.01 20.76 1.16Zm27.19 27.16c.72.04 1.45.08 2.17.13.33 2.5.65 5 .98 7.51-3.77-.35-7.55-.61-11.34-.77l-.78-12.37c-.45-.35-.91-.69-1.36-1.04-1.66-.02-3.31-.04-4.97-.05.09 4.42.17 8.84.26 13.26-3.79-.05-7.57 0-11.35.13.13-2.4.26-4.8.38-7.2.73-.02 1.45-.03 2.18-.05.25-6.45.5-12.91.74-19.36-.63 0-1.26 0-1.89-.01.13-2.4.25-4.79.38-7.19 6.02.11 12.05.07 18.06-.13 1.21 1.21 2.45 2.43 3.72 3.66.45 3.86.91 7.73 1.37 11.61-.53.62-1.07 1.24-1.62 1.85.68.63 1.37 1.27 2.06 1.92.33 2.7.67 5.4 1 8.1Zm-9.81-18.86c-.41-.34-.83-.67-1.23-1.01-1.5.01-3 .02-4.51.02l.12 6.1h4.72c.39-.34.78-.67 1.16-1.01-.09-1.37-.17-2.74-.26-4.11Zm27.43 2.39c-.32-1.38-.64-2.75-.97-4.12-1.68.08-3.36.16-5.05.22.47 2.24.93 4.49 1.4 6.75 1.76 0 3.53.02 5.29.02.64 2.75 1.28 5.53 1.92 8.32-1.85-.12-3.71-.24-5.57-.35.47 2.29.93 4.59 1.4 6.9 1.94.2 3.87.42 5.8.65-.32-1.43-.64-2.85-.97-4.27 2.79.25 5.56.52 8.34.81 1.16 4.55 2.32 9.17 3.48 13.89-8.69-1.98-17.47-3.44-26.28-4.39-.38-2.55-.75-5.09-1.13-7.63.72.05 1.45.11 2.17.16-1.11-6.92-2.21-13.77-3.32-20.57-.63.02-1.26.03-1.89.05-.37-2.5-.75-4.99-1.12-7.47 6.92-.41 13.81-1.05 20.66-2.04 1.17 4.25 2.34 8.56 3.5 12.94-2.55.05-5.1.09-7.66.12Zm18.41-5.52c2.69 8.7 5.36 17.77 8 27.29l2.12.39c1.01 3.62 2.01 7.3 3.01 11.06-4.39-1.35-8.82-2.57-13.27-3.65-.81-3.24-1.63-6.43-2.45-9.59l2.13.33c-2.3-8.7-4.61-17.06-6.93-25.16-.62.05-1.24.1-1.86.14-.83-2.95-1.65-5.87-2.48-8.75 3.51-.55 7-1.2 10.48-1.97 1.04 3.18 2.07 6.41 3.1 9.69-.62.07-1.23.14-1.85.2Z"/>
        <path class="cls-8" d="M51.1 194.19c.39-1.46.77-2.91 1.16-4.36-1.68-.11-3.35-.23-5.02-.37-.73 2.56-1.47 5.14-2.2 7.76 1.75.01 3.5.02 5.25.02-.77 2.92-1.53 5.88-2.3 8.86-1.84.14-3.69.29-5.52.44-.73 2.68-1.46 5.4-2.18 8.15 1.91-.31 3.83-.6 5.75-.87.38-1.53.77-3.06 1.15-4.57 2.77-.29 5.55-.55 8.34-.8-.95 4.21-1.89 8.47-2.84 12.78a226.16 226.16 0 0 0-25.98 6.36c1-3.76 2-7.44 3.01-11.06l2.12-.39c2.64-9.53 5.31-18.6 8-27.29-.62-.07-1.24-.13-1.85-.2 1.03-3.28 2.06-6.51 3.1-9.69 6.78 1.49 13.62 2.54 20.5 3.29-.95 4.02-1.89 8.08-2.84 12.18-2.55-.06-5.1-.14-7.64-.23Zm33.77-10.52c-.26 3.62-.53 7.24-.8 10.86-2.58 0-5.15-.01-7.72-.03l.48-3.72c-1.69-.03-3.38-.07-5.07-.12-.35 2.15-.7 4.3-1.05 6.46l5.31-.03c-.32 2.47-.63 4.95-.95 7.43-1.87.06-3.73.14-5.59.22-.35 2.17-.7 4.35-1.05 6.54.72-.06 1.44-.11 2.17-.16-.38 2.53-.75 5.08-1.13 7.63-4.52.49-9.04 1.11-13.54 1.86.58-2.79 1.16-5.57 1.74-8.32.72-.08 1.44-.16 2.16-.23.15-.73.29-1.45.44-2.18l.45-2.23c1.18-5.78 2.35-11.49 3.52-17.13-.63-.02-1.25-.05-1.88-.08.58-2.66 1.16-5.3 1.74-7.93 6.89.64 13.82 1.01 20.76 1.16Zm27.19 27.16c.72.04 1.45.08 2.17.13.33 2.5.65 5 .98 7.51-3.77-.35-7.55-.61-11.34-.77l-.78-12.37c-.45-.35-.91-.69-1.36-1.04-1.66-.02-3.31-.04-4.97-.05.09 4.42.17 8.84.26 13.26-3.79-.05-7.57 0-11.35.13.13-2.4.26-4.8.38-7.2.73-.02 1.45-.03 2.18-.05.25-6.45.5-12.91.74-19.36-.63 0-1.26 0-1.89-.01.13-2.4.25-4.79.38-7.19 6.02.11 12.05.07 18.06-.13 1.21 1.21 2.45 2.43 3.72 3.66.45 3.86.91 7.73 1.37 11.61-.53.62-1.07 1.24-1.62 1.85.68.63 1.37 1.27 2.06 1.92.33 2.7.67 5.4 1 8.1Zm-9.81-18.86c-.41-.34-.83-.67-1.23-1.01-1.5.01-3 .02-4.51.02l.12 6.1h4.72c.39-.34.78-.67 1.16-1.01-.09-1.37-.17-2.74-.26-4.11Zm27.43 2.39c-.32-1.38-.64-2.75-.97-4.12-1.68.08-3.36.16-5.05.22.47 2.24.93 4.49 1.4 6.75 1.76 0 3.53.02 5.29.02.64 2.75 1.28 5.53 1.92 8.32-1.85-.12-3.71-.24-5.57-.35.47 2.29.93 4.59 1.4 6.9 1.94.2 3.87.42 5.8.65-.32-1.43-.64-2.85-.97-4.27 2.79.25 5.56.52 8.34.81 1.16 4.55 2.32 9.17 3.48 13.89-8.69-1.98-17.47-3.44-26.28-4.39-.38-2.55-.75-5.09-1.13-7.63.72.05 1.45.11 2.17.16-1.11-6.92-2.21-13.77-3.32-20.57-.63.02-1.26.03-1.89.05-.37-2.5-.75-4.99-1.12-7.47 6.92-.41 13.81-1.05 20.66-2.04 1.17 4.25 2.34 8.56 3.5 12.94-2.55.05-5.1.09-7.66.12Zm18.41-5.52c2.69 8.7 5.36 17.77 8 27.29l2.12.39c1.01 3.62 2.01 7.3 3.01 11.06-4.39-1.35-8.82-2.57-13.27-3.65-.81-3.24-1.63-6.43-2.45-9.59l2.13.33c-2.3-8.7-4.61-17.06-6.93-25.16-.62.05-1.24.1-1.86.14-.83-2.95-1.65-5.87-2.48-8.75 3.51-.55 7-1.2 10.48-1.97 1.04 3.18 2.07 6.41 3.1 9.69-.62.07-1.23.14-1.85.2Z"/>
        <circle class="cls-7" cx="80.91" cy="216.1" r="2.74"/>
        <path class="cls-7" d="M24.95 247.34c-2.03 0-3.98-.89-5.32-2.45a6.976 6.976 0 0 1-1.46-6.28l.82-3.23a6.963 6.963 0 0 1 2.49-3.79l.1-.39c-.61-1.41-.75-3-.36-4.52l.81-3.19c.73-2.86 3.19-4.99 6.13-5.27 4.95-.47 9.98-.89 14.94-1.25a6.957 6.957 0 0 1 4.11.98c.79.48 1.59.95 2.4 1.43a7.01 7.01 0 0 1 3.31 7.3l-.95 5.08c-.05.27-.12.54-.2.81-.02.28-.05.55-.1.83l-.95 5.08a6.997 6.997 0 0 1-3.39 4.78l-3.21 1.85c-.91.52-1.93.84-2.98.91-5.17.38-10.4.81-15.53 1.3-.22.02-.44.03-.66.03Z"/>
        <path class="cls-7" d="M47.37 245.58a7.01 7.01 0 0 1-5.21-2.32 7.022 7.022 0 0 1-1.69-5.87l.55-3.2a7.029 7.029 0 0 1 3.76-5.07c.24-.47.48-.94.71-1.42-.12-.74-.13-1.51 0-2.27l.51-3.2a6.997 6.997 0 0 1 6.5-5.88c4.53-.27 9.17-.49 13.77-.67h.27a7.007 7.007 0 0 1 6.96 7.74l-.34 3.2c-.08.77-.29 1.5-.59 2.17.32.24.62.51.9.8a6.986 6.986 0 0 1 1.87 5.46l-.3 3.19a7.003 7.003 0 0 1-6.73 6.34c-3.16.11-6.32.24-9.48.39h-.34c-.15 0-.29 0-.44-.01-.25.04-.51.07-.77.08-3.16.16-6.32.34-9.47.54-.15 0-.3.01-.44.01Z"/>
        <path class="cls-7" d="M74.37 244.37c-1.19 0-2.37-.3-3.41-.89l-2.82-1.58a6.988 6.988 0 0 1-3.55-6.68l.26-3.15c.04-.5.13-.99.27-1.45-.04-.42-.05-.86-.01-1.29l.48-5.83a7.027 7.027 0 0 1 3.41-5.45l2.85-1.7a7.14 7.14 0 0 1 3.4-.99c3.5-.09 7.1-.16 10.69-.19h.07c1.26 0 2.49.34 3.58.98.9.54 1.81 1.07 2.72 1.61a6.986 6.986 0 0 1 3.44 6.15l-.05 3.15c0 .5-.07.99-.18 1.46.07.42.1.85.09 1.28l-.1 5.82a6.993 6.993 0 0 1-3.56 5.97l-2.94 1.66c-1.03.58-2.18.88-3.36.9-3.67.04-7.4.11-11.11.2h-.18Z"/>
        <path class="cls-7" d="M114.07 244.44c-3.16-.09-6.32-.16-9.48-.21-.47 0-.93-.06-1.38-.16-.42.08-.86.12-1.29.12h-.09c-2.87-.04-5.75-.05-8.62-.05h-.87c-1.86 0-3.64-.74-4.95-2.05a7.048 7.048 0 0 1-2.05-4.97v-3.19a7.03 7.03 0 0 1 1.5-4.3 6.97 6.97 0 0 1-1.46-4.31v-3.19a7.023 7.023 0 0 1 7-6.98h.87c2.75 0 5.51.02 8.26.05.45 0 .9.05 1.33.14.4-.07.8-.11 1.21-.11h.11c3.04.05 6.08.12 9.13.21 3.57.11 6.49 2.88 6.77 6.44l.26 3.19c.13 1.58-.28 3.13-1.14 4.43a6.962 6.962 0 0 1 1.83 4.18l.26 3.2c.16 1.98-.53 3.94-1.91 5.38a7.007 7.007 0 0 1-5.07 2.18h-.21Z"/>
        <path class="cls-7" d="M136.77 245.45c-.14 0-.28 0-.42-.01-6.12-.37-12.33-.66-18.46-.88a7.01 7.01 0 0 1-6.73-6.33l-.3-3.2c-.15-1.58.24-3.14 1.08-4.45a6.958 6.958 0 0 1-1.9-4.17l-.3-3.19c-.19-2 .49-3.99 1.87-5.46a6.976 6.976 0 0 1 5.09-2.2h.24c5.94.21 11.92.49 17.77.84 3.26.2 5.95 2.62 6.48 5.85l.79 4.82c.16.94.11 1.9-.11 2.8a7 7 0 0 1 1 2.62l.79 4.82c.34 2.1-.28 4.24-1.71 5.82a6.98 6.98 0 0 1-5.2 2.31Z"/>
        <path class="cls-7" d="M155.73 246.84c-.2 0-.4 0-.6-.03-3.15-.27-6.31-.53-9.46-.76a6.994 6.994 0 0 1-6.35-5.61l-.64-3.21c-.12-.6-.16-1.2-.12-1.79-.08 0-.15 0-.22-.01a6.998 6.998 0 0 1-6.43-5.75l-.86-4.82c-.38-2.12.24-4.29 1.67-5.9a6.99 6.99 0 0 1 5.22-2.33c.15 0 .31 0 .46.01 6.54.43 13.17.96 19.7 1.58 2.94.28 5.39 2.37 6.12 5.24l1.24 4.85a7.005 7.005 0 0 1-3.38 7.85l.49 2.09c.51 2.18-.05 4.48-1.52 6.18a7.017 7.017 0 0 1-5.29 2.42Z"/>
        <path d="M45.09 230.47c-.52.3-1.04.61-1.56.92.42.24.83.48 1.25.72-.32 1.69-.63 3.39-.95 5.08-1.06.61-2.13 1.23-3.2 1.84-5.23.38-10.46.82-15.68 1.31.27-1.08.55-2.15.82-3.23l1.58-.15c.72-2.9 1.45-5.8 2.17-8.7-.51.05-1.02.09-1.53.14.27-1.08.55-2.15.82-3.23 4.93-.47 9.86-.88 14.79-1.24.8.48 1.61.96 2.42 1.44-.32 1.69-.63 3.39-.95 5.08Zm-6.33-3.02c-1.05.08-2.11.17-3.16.26-.21.91-.41 1.83-.62 2.74 1.07-.09 2.13-.18 3.2-.26.34-.2.69-.41 1.03-.61.11-.55.23-1.09.34-1.64-.28-.16-.56-.31-.83-.47.01 0 .03-.02.04-.02Zm-.8 8.04c.11-.55.23-1.09.34-1.64-.27-.16-.55-.31-.82-.47-1.08.09-2.16.17-3.24.26-.21.91-.41 1.83-.62 2.74l3.27-.27c.35-.21.71-.42 1.06-.63Zm30.42-1.12-.3 3.19c-3.19.11-6.38.24-9.57.39l.42-3.2c.53-.03 1.05-.05 1.58-.07l-.24-1.33c-1.29.06-2.57.12-3.86.19-.2.46-.4.92-.61 1.38.53-.03 1.05-.05 1.58-.08-.15 1.07-.29 2.13-.44 3.2-3.19.16-6.38.34-9.57.54.18-1.07.37-2.14.55-3.21.53-.03 1.05-.07 1.58-.1 1.51-2.95 2.98-5.89 4.42-8.82l-1.53.09c.17-1.07.34-2.14.51-3.2 4.54-.27 9.09-.49 13.63-.67-.11 1.07-.23 2.13-.34 3.2l-1.53.06c.67 2.83 1.38 5.67 2.12 8.5l1.58-.06Zm-8.49-3.03c-.25-1.43-.49-2.85-.72-4.28-.62 1.47-1.25 2.93-1.88 4.4.87-.04 1.73-.09 2.6-.13Zm22.68-4.32c.02-.39.03-.77.05-1.16-.31-.15-.62-.29-.93-.43-.75.01-1.51.03-2.26.04-.32.16-.65.31-.97.47-.04.61-.07 1.21-.11 1.82.31.14.62.29.93.43 2.19-.04 4.37-.08 6.56-.1.92.53 1.84 1.07 2.77 1.6-.03 1.94-.07 3.88-.1 5.82-.97.55-1.95 1.1-2.93 1.65-3.74.04-7.48.11-11.22.2-.94-.52-1.87-1.05-2.8-1.57.09-1.05.17-2.1.26-3.15 2.08-.06 4.17-.12 6.25-.16-.02.39-.04.77-.07 1.16.32.14.64.29.95.43.78-.02 1.56-.03 2.34-.04.33-.16.67-.31 1-.47.03-.61.05-1.21.08-1.82-.32-.14-.63-.29-.95-.43-2.21.04-4.43.08-6.64.14-.91-.52-1.81-1.03-2.7-1.55l.48-5.83c.96-.57 1.92-1.14 2.87-1.71 3.53-.09 7.05-.16 10.58-.19.91.54 1.82 1.08 2.74 1.63-.02 1.05-.04 2.1-.05 3.15-2.04.01-4.08.03-6.13.07Zm28.1-1.46c-1.13 1.4-2.28 2.81-3.44 4.22 1.33 1.46 2.67 2.92 4.04 4.39.92.02 1.83.05 2.75.08.09 1.06.17 2.13.26 3.19-3.19-.09-6.38-.17-9.58-.22-.05-1.06-.09-2.13-.14-3.19h.41c-.85-.92-1.68-1.84-2.51-2.75l-2.31-.03c.02.91.05 1.81.07 2.72.53 0 1.06.01 1.58.02.04 1.06.07 2.13.11 3.19-3.19-.04-6.38-.06-9.58-.05v-3.19h1.58c0-2.87-.02-5.74-.03-8.6h-1.53v-3.19c3.01 0 6.02.01 9.03.05.04 1.06.07 2.13.11 3.19-.51 0-1.02-.01-1.53-.02.02.91.05 1.81.07 2.72.76 0 1.52.02 2.28.03.75-.9 1.5-1.79 2.23-2.68h-.4c-.05-1.06-.09-2.13-.14-3.19 3.01.05 6.02.12 9.03.2.09 1.06.17 2.13.26 3.19-.89-.03-1.77-.05-2.66-.07Zm18.29 2.28c-.08-.54-.15-1.07-.23-1.61-1.37-.07-2.74-.14-4.12-.2.11.91.23 1.82.34 2.73 1.39.06 2.77.13 4.16.2l.45 3.2c-1.4-.07-2.81-.14-4.21-.2.11.91.23 1.82.34 2.73 1.42.06 2.84.13 4.26.21-.08-.54-.15-1.07-.23-1.61 2.08.11 4.17.22 6.25.35.26 1.61.53 3.21.79 4.82-6.21-.38-12.43-.67-18.64-.88l-.3-3.19 1.58.06-.87-8.62c-.51-.02-1.02-.04-1.53-.05l-.3-3.19c5.86.2 11.73.48 17.59.83.26 1.61.53 3.21.79 4.82-2.04-.13-4.08-.25-6.12-.36Zm24.36 1.71c-.13-.54-.25-1.08-.38-1.62-.51-.04-1.02-.09-1.53-.13.66 2.9 1.33 5.79 1.99 8.69.53.04 1.05.09 1.58.14.25 1.07.5 2.15.76 3.22-3.18-.28-6.37-.53-9.55-.77-.21-1.07-.43-2.14-.64-3.21l1.58.12c-.59-2.89-1.19-5.78-1.78-8.67-.51-.04-1.02-.08-1.53-.11.11.54.21 1.08.32 1.62-1.78-.13-3.56-.25-5.35-.37-.29-1.61-.57-3.21-.86-4.82 6.5.43 13 .95 19.5 1.56.41 1.62.83 3.23 1.24 4.85-1.78-.17-3.56-.33-5.34-.48Z" style="fill:url(#Dégradé_sans_nom_32)"/>
    </g>
</svg>