<?xml version="1.0" encoding="utf-8"?><svg version="1.1" id="Layer_1" xmlns="http://www.w3.org/2000/svg" xmlns:xlink="http://www.w3.org/1999/xlink" x="0px" y="0px" viewBox="0 0 96.59 122.88" style="enable-background:new 0 0 96.59 122.88" xml:space="preserve"><style type="text/css">.st0{fill-rule:evenodd;clip-rule:evenodd;}</style><g><path class="st0" d="M16.75,0h62.99l-0.05,0.09l16.89,21.48L73.28,61.58c5.83,6.51,9.38,15.1,9.38,24.53 c0,20.31-16.46,36.77-36.77,36.77c-20.31,0-36.77-16.46-36.77-36.77c0-10.97,4.81-20.82,12.43-27.55L0,21.57L16.84,0.15L16.75,0 L16.75,0L16.75,0z M54,50.24L78.96,1.29L68.09,19.12H28.36L18.08,2.19l24.14,47.33c1.21-0.12,2.43-0.18,3.67-0.18 C48.68,49.34,51.39,49.65,54,50.24L54,50.24L54,50.24z M45.89,57.08c16.03,0,29.03,12.99,29.03,29.03c0,16.04-13,29.03-29.03,29.03 c-16.03,0-29.03-13-29.03-29.03C16.86,70.07,29.86,57.08,45.89,57.08L45.89,57.08z" fill="#fff"/></g></svg>