<?xml version="1.0" encoding="utf-8"?>

<!DOCTYPE svg PUBLIC "-//W3C//DTD SVG 1.1//EN" "http://www.w3.org/Graphics/SVG/1.1/DTD/svg11.dtd">
<!-- Uploaded to: SVG Repo, www.svgrepo.com, Generator: SVG Repo Mixer Tools -->
<svg height="800px" width="800px" version="1.1" id="_x32_" xmlns="http://www.w3.org/2000/svg" xmlns:xlink="http://www.w3.org/1999/xlink" 
	 viewBox="0 0 512 512"  xml:space="preserve">
<style type="text/css">
	.st0{fill:#fff;}
</style>
<g>
	<path class="st0" d="M367.918,69.237H129.781h-9.365l-7.227,5.949L9.514,160.546L0,168.382v12.322v79.167v21.874l21.534,3.824
		l106.199,18.9c11.706,2.082,21.551,9.824,26.335,20.71l0.425,0.96l0.498,0.927c0.008,0.016,3.059,5.753,5.119,11.676
		c21.993,63.19,76.312,104.023,138.385,104.023c44.031,0,84.652-19.019,111.437-52.186l67.359-84.359l0.624-0.782l0.566-0.832
		l0.212-0.314l11.119-14.616l0.867-1.139l0.74-1.232C504.884,264.867,512,239.289,512,213.319
		C512,133.872,447.365,69.237,367.918,69.237z M403.516,356.781l-13.894,17.395c-21.627,26.778-54.021,42.482-91.127,42.482
		c-54.255,0-96.72-37.63-113.728-86.501c-2.821-8.106-6.798-15.483-6.798-15.483c-8.277-18.84-25.404-32.309-45.664-35.912
		L26.106,259.87v-70.397H247.06c17.404,0,35.135,0,54.876,0c31.655,0,60.233,12.807,80.989,33.55
		c20.739,20.752,33.541,49.331,33.546,80.986C416.466,323.078,411.738,340.975,403.516,356.781z M469.034,273.867l-11.726,15.415
		l-0.417,0.646l-24.109,30.193c0.646-5.294,1.092-10.648,1.092-16.112c-0.004-72.87-59.065-131.931-131.938-131.94
		c-19.741,0-37.472,0-54.876,0H36.592l93.188-76.727c0,0,202.62,0,238.137,0c65.158,0,117.976,52.823,117.976,117.977
		C485.894,235.49,479.67,256.149,469.034,273.867z" stroke="#fff"
    stroke-width="4"/>
	<polygon class="st0" points="240.836,154.853 315.673,154.853 369.809,109.466 294.972,109.466 	"/>
    
</g>
</svg>